<svg width="50" height="49" viewBox="0 0 50 49" fill="none" xmlns="http://www.w3.org/2000/svg">
<path d="M24.7248 48.2301C32.342 48.2301 38.5169 46.9818 38.5169 45.442C38.5169 43.9022 32.342 42.654 24.7248 42.654C17.1077 42.654 10.9328 43.9022 10.9328 45.442C10.9328 46.9818 17.1077 48.2301 24.7248 48.2301Z" fill="#ABD2E5"/>
<path d="M36.216 5.59265C35.8712 5.67231 35.5264 5.72541 35.1882 5.78516C35.5927 5.38022 35.9441 4.92883 36.0767 4.37785C36.1894 3.91318 35.6258 3.54807 35.228 3.72066C34.7572 3.92645 34.3726 4.31811 34.0212 4.74959C34.0543 4.61019 34.0875 4.47078 34.1206 4.33138C34.4522 2.87097 34.9428 1.8354 34.5384 0.368351C34.3593 -0.275559 33.5305 0.0231589 33.3979 0.514389C33.0796 1.71591 32.7215 2.88425 32.5027 4.11232C32.2905 5.28065 31.8131 6.5552 31.8065 7.73017C31.7998 8.39399 32.7149 8.77237 33.0067 8.06208C33.0531 7.94259 33.0929 7.8231 33.1393 7.70361C33.3117 7.53766 33.4575 7.33187 33.6366 7.16592C33.6631 7.13936 33.6896 7.11945 33.7161 7.09953C34.0808 7.07298 34.4721 6.96676 34.797 6.94685C35.5595 6.90038 36.0701 6.88047 36.6271 6.31622C36.8989 6.03741 36.5806 5.51299 36.216 5.59265Z" fill="#FEBF4D"/>
<path d="M11.6091 6.93359C11.9606 6.99997 12.3054 7.04644 12.6435 7.09954C12.2258 6.70789 11.8611 6.26312 11.7152 5.71878C11.5892 5.25411 12.1462 4.87573 12.5507 5.04169C13.0281 5.2342 13.4193 5.61921 13.784 6.03742C13.7442 5.89802 13.7111 5.76525 13.6713 5.62585C13.3 4.17871 12.7761 3.15642 13.1408 1.67609C13.3 1.02554 14.1421 1.30435 14.2813 1.78895C14.6328 2.97719 15.024 4.13888 15.2826 5.36032C15.5213 6.52201 16.0385 7.78328 16.0849 8.95161C16.1114 9.61544 15.203 10.0204 14.8914 9.31672C14.8383 9.19723 14.7919 9.07774 14.7455 8.95825C14.5665 8.79893 14.4206 8.59978 14.2349 8.43383C14.2084 8.40728 14.1819 8.38736 14.1553 8.36745C13.7907 8.34753 13.3994 8.25459 13.0679 8.24795C12.3054 8.22804 11.7948 8.22141 11.2179 7.66379C10.9394 7.39826 11.2378 6.86057 11.6091 6.93359Z" fill="#FEBF4D"/>
<path d="M9.39444 17.4486C7.77653 17.4353 6.39732 16.871 4.733 17.2826C2.96257 17.7207 1.31151 19.0484 0.628537 20.761C0.124597 22.0289 -0.578267 24.9763 0.82746 26.0052C1.59 26.5695 3.06204 26.4235 3.92404 26.231C3.31401 26.762 3.12834 28.4481 3.70522 29.092C4.9717 30.5126 7.44499 29.0522 8.50591 28.1693C11.7285 25.4808 13.1077 20.0574 9.39444 17.4486Z" fill="#FEBF4D"/>
<path d="M40.6056 17.4486C42.2235 17.4353 43.6027 16.871 45.267 17.2826C47.0374 17.7207 48.6885 19.0484 49.3715 20.761C49.8754 22.0289 50.5783 24.9763 49.1725 26.0052C48.41 26.5695 46.938 26.4235 46.076 26.231C46.686 26.762 46.8716 28.4481 46.2948 29.092C45.0283 30.5126 42.555 29.0522 41.4941 28.1693C38.2715 25.4808 36.8857 20.0574 40.6056 17.4486Z" fill="#FEBF4D"/>
<path d="M23.8031 3.94638C9.59998 5.85819 7.09354 20.2167 6.97419 28.7535C6.85483 37.2903 11.8147 46.6369 26.2234 45.369C40.6321 44.1011 43.165 33.1347 42.933 24.598C42.7075 16.0678 35.7916 2.33329 23.8031 3.94638Z" fill="#6FA1D6"/>
<path d="M24.38 13.8705C24.38 13.8705 20.574 8.67944 14.8118 12.835C9.04965 16.9905 11.2909 28.6473 24.8376 27.3727C38.3246 26.1048 38.3246 20.1039 36.594 15.716C34.8699 11.3347 29.9101 7.06634 24.38 13.8705Z" fill="#FFF8A1"/>
<path d="M2.67745 20.9934C2.85648 20.8407 2.7305 20.5951 2.55147 20.5221C2.08068 20.3362 1.79556 20.9071 1.61653 21.239C1.3314 21.79 1.51043 22.321 1.90165 22.7459C2.11383 22.9716 2.55147 22.7392 2.43874 22.4339C2.33928 22.175 2.22656 21.9227 2.2995 21.6439C2.37244 21.3718 2.46527 21.1793 2.67745 20.9934Z" fill="#F99F49"/>
<path d="M4.7131 23.1773C4.40808 22.945 4.16274 22.6994 4.14948 22.2945C4.13622 21.9758 3.6588 21.8962 3.58586 22.2148C3.42672 22.872 3.77152 23.6155 4.47439 23.7482C4.83245 23.8213 4.99159 23.3964 4.7131 23.1773Z" fill="#F99F49"/>
<path d="M6.10554 21.0664C6.05912 20.8938 5.99281 20.7411 5.91988 20.5818C5.88672 20.5154 5.8602 20.4491 5.84031 20.376C5.82041 20.3163 5.84694 20.2964 5.81378 20.3296C6.01934 20.1171 5.82041 19.6989 5.50877 19.8051C5.14407 19.9313 5.07777 20.2698 5.16397 20.615C5.23691 20.9071 5.42257 21.1328 5.61486 21.3585C5.81378 21.5842 6.17848 21.3386 6.10554 21.0664Z" fill="#F99F49"/>
<path d="M6.56974 26.1314C6.152 26.0451 5.98623 25.6933 5.95307 25.295C5.92655 24.983 5.45576 24.9763 5.4624 25.295C5.47566 25.9256 5.76741 26.6359 6.51669 26.543C6.73551 26.523 6.82171 26.1845 6.56974 26.1314Z" fill="#F99F49"/>
<path d="M44.5376 18.889C44.3387 18.7828 44.1265 19.0417 44.2923 19.2077C44.7166 19.6392 43.8878 20.0839 43.8149 20.4889C43.7817 20.6548 43.8944 20.8672 44.0867 20.8473C44.5376 20.8075 44.7763 20.3362 44.9156 19.9578C45.0681 19.5396 44.9421 19.1015 44.5376 18.889Z" fill="#F99F49"/>
<path d="M45.4195 20.7279C45.1742 20.4955 44.8559 20.8407 45.0548 21.093C45.5057 21.6506 45.0814 22.1352 44.7697 22.6198C44.6172 22.8587 44.909 23.1044 45.141 22.9915C46.0163 22.5467 46.0959 21.3718 45.4195 20.7279Z" fill="#F99F49"/>
<path d="M45.3996 24.2793C45.3002 24.0801 45.0217 24.2262 45.0548 24.4253C45.1211 24.7838 44.6106 24.8767 44.3719 24.9697C44.1862 25.0427 44.1398 25.3414 44.3719 25.3945C45.0084 25.5339 45.7312 24.9298 45.3996 24.2793Z" fill="#F99F49"/>
<path d="M48.032 21.6506C47.9724 21.3585 47.5016 21.4249 47.5148 21.7236C47.5281 21.9958 47.6276 22.2679 47.5613 22.5401C47.5016 22.7658 47.2761 22.9782 47.1303 23.1508C46.9579 23.3699 47.1767 23.7416 47.4485 23.5624C47.7668 23.3566 48.0055 23.1508 48.1514 22.799C48.3105 22.414 48.0984 22.0223 48.032 21.6506Z" fill="#F99F49"/>
<path d="M48.8012 24.1266C48.715 23.9275 48.3769 23.9806 48.3371 24.1864C48.3172 24.3059 48.3305 24.4453 48.2443 24.5515C48.1448 24.671 47.9989 24.7573 47.8796 24.8502C47.6541 25.0162 47.7801 25.3613 48.0719 25.3016C48.6288 25.1887 49.0466 24.7108 48.8012 24.1266Z" fill="#F99F49"/>
<path d="M45.3267 27.4856C45.2206 27.2864 44.8758 27.3727 44.8891 27.6051C44.9023 27.7511 44.8891 27.771 44.7565 27.8374C44.604 27.9171 44.4647 28.0167 44.3122 28.0963C44.0735 28.2291 44.2459 28.5544 44.4846 28.5145C44.7697 28.4614 45.0217 28.4681 45.2538 28.2689C45.4991 28.0631 45.4593 27.7312 45.3267 27.4856Z" fill="#F99F49"/>
<path d="M5.88676 28.1162C5.73425 27.9901 5.595 27.8573 5.44913 27.7246C5.36293 27.6449 5.28336 27.5719 5.22368 27.4723C5.22368 27.4723 5.21705 27.4458 5.21042 27.4325C5.22368 27.4192 5.23694 27.3528 5.2502 27.3263C5.31651 27.1603 5.11759 26.9811 4.95845 27.0342C4.55397 27.1669 4.62028 27.6383 4.8192 27.9171C5.03139 28.2158 5.30988 28.4149 5.64805 28.5477C5.8735 28.6274 6.07242 28.2755 5.88676 28.1162Z" fill="#F99F49"/>
<path d="M16.9137 29.9285C16.0186 30.0745 14.5001 29.8156 14.1885 28.7867C14.0691 28.4017 13.5188 28.561 13.5917 28.9526C13.7243 29.6961 14.2747 30.121 14.9179 30.4396C15.6605 30.8114 16.5557 31.1234 17.2453 30.4994C17.5171 30.2471 17.2188 29.882 16.9137 29.9285Z" fill="#8DC2E9"/>
<path d="M21.5354 33.5463C21.0182 33.7521 20.5408 33.8782 19.9838 33.772C19.6125 33.699 18.7638 33.3803 18.7107 32.9157C18.6842 32.6435 18.3062 32.6369 18.2863 32.9157C18.2267 33.626 18.9826 34.0442 19.5329 34.3097C20.3087 34.6814 21.1641 34.6217 21.8206 34.0508C22.0394 33.8583 21.8139 33.4335 21.5354 33.5463Z" fill="#8DC2E9"/>
<path d="M26.8732 30.1077C26.0444 30.6056 25.2222 30.964 24.2938 30.4728C23.9689 30.3002 23.6971 30.7649 24.0087 30.964C25.0166 31.6212 26.4687 31.5747 27.2512 30.5923C27.4567 30.3334 27.1981 29.9152 26.8732 30.1077Z" fill="#8DC2E9"/>
<path d="M32.5624 32.1124C32.2507 32.1456 31.9656 32.2186 31.6739 32.3249C31.3224 32.451 30.9644 32.378 30.5997 32.3514C30.2283 32.3315 30.1554 32.909 30.5135 32.9953C30.8914 33.0883 31.2561 33.221 31.654 33.1745C32.0518 33.1347 32.4032 32.9555 32.7348 32.7364C32.9868 32.5771 32.9204 32.0726 32.5624 32.1124Z" fill="#8DC2E9"/>
<path d="M36.6337 28.4813C36.3817 28.5875 36.1629 28.7535 35.9109 28.873C35.6258 29.0124 35.3208 29.092 35.0224 29.1982C34.7041 29.3111 34.8301 29.7824 35.1617 29.7028C35.7584 29.5634 36.7332 29.5036 36.9851 28.8331C37.0581 28.6406 36.8326 28.4017 36.6337 28.4813Z" fill="#8DC2E9"/>
<path d="M26.4091 37.735C25.6996 37.6023 25.0365 37.4363 24.3535 37.1907C23.9822 37.0579 23.7435 37.6421 24.0883 37.8213C24.7646 38.1864 25.5802 38.3192 26.3361 38.2462C26.6146 38.2263 26.7207 37.7948 26.4091 37.735Z" fill="#8DC2E9"/>
<path d="M15.2361 35.6174C14.7388 35.4382 13.8835 35.3785 13.658 34.854C13.5784 34.6682 13.2867 34.6947 13.2005 34.854C12.9419 35.3187 13.4458 35.7236 13.8105 35.9029C14.2415 36.1153 14.6858 36.175 15.1566 36.2149C15.5146 36.2481 15.5412 35.7303 15.2361 35.6174Z" fill="#8DC2E9"/>
<path d="M37.1112 33.9977C36.8791 34.1637 36.6603 34.3429 36.4282 34.5089C36.163 34.6881 35.8911 34.7279 35.5861 34.781C35.2413 34.8408 35.2811 35.3453 35.5861 35.4316C36.4348 35.6772 37.1443 35.1528 37.5886 34.469C37.7676 34.1902 37.3963 33.7919 37.1112 33.9977Z" fill="#8DC2E9"/>
<path d="M21.2901 40.6492C20.7132 40.7754 20.143 40.8484 19.5528 40.8749C19.1815 40.8882 18.7836 40.8218 18.4521 40.6426C18.2399 40.5297 18.1272 40.4102 17.8885 40.3505C17.61 40.2841 17.3779 40.6293 17.6034 40.8417C18.1139 41.3396 18.4587 41.625 19.2014 41.7313C19.9905 41.8375 20.7464 41.6118 21.4757 41.3197C21.8869 41.1604 21.741 40.5497 21.2901 40.6492Z" fill="#8DC2E9"/>
<path d="M31.2562 39.5606C30.9313 40.0451 30.3478 39.9721 29.8637 39.8062C29.5653 39.7066 29.4261 40.1314 29.6582 40.2841C30.4207 40.7953 31.5413 40.8617 31.8198 39.7929C31.9126 39.4543 31.4485 39.2751 31.2562 39.5606Z" fill="#8DC2E9"/>
<path d="M24.2805 8.9317C24.1081 9.08438 23.9225 9.31008 23.697 9.38974C23.4848 9.46276 23.087 9.29016 23.0273 9.0711C22.961 8.81221 22.5565 8.79893 22.4902 9.0711C22.351 9.65527 22.9411 10.0536 23.4451 10.173C24.0882 10.3257 24.4728 9.7814 24.7447 9.2968C24.9237 8.98481 24.5325 8.706 24.2805 8.9317Z" fill="#8DC2E9"/>
<path d="M21.8404 7.33187C21.3033 7.57084 20.5275 7.61068 19.997 7.32523C19.8048 7.22566 19.5329 7.43808 19.6788 7.64386C19.9374 8.0156 20.4015 8.05543 20.8193 8.10854C21.3166 8.17492 21.6813 8.0156 22.0725 7.71688C22.3046 7.54429 22.1123 7.20574 21.8404 7.33187Z" fill="#8DC2E9"/>
<path d="M26.5483 7.17254C26.6014 7.14598 26.5085 7.18581 26.5019 7.18581C26.4621 7.19909 26.429 7.20572 26.3892 7.219C26.2897 7.25883 26.1836 7.28538 26.0775 7.31194C25.9383 7.35177 25.7791 7.3916 25.673 7.26547C25.5802 7.15262 25.3614 7.21236 25.3349 7.35177C25.2752 7.75006 25.6399 7.90274 25.9714 7.94257C26.3162 7.9824 26.7273 7.843 26.9196 7.54428C27.0788 7.3053 26.7738 7.05305 26.5483 7.17254Z" fill="#8DC2E9"/>
<path d="M17.8023 8.72591C17.2652 8.46702 16.6684 8.38072 16.0783 8.34089C15.8263 8.32761 15.7666 8.74582 16.0186 8.77901C16.5623 8.85867 17.0862 9.03791 17.6365 9.11757C17.8553 9.15076 18.041 8.83876 17.8023 8.72591Z" fill="#8DC2E9"/>
<path d="M31.024 8.08201C31.0108 8.02226 31.0042 7.96916 30.9909 7.90941C30.9445 7.67044 30.5665 7.61733 30.4671 7.84303C30.4604 7.85631 30.4538 7.86958 30.4472 7.88286C30.1156 7.96916 29.7973 7.96916 29.4459 7.94924C29.1475 7.92933 29.0812 8.40728 29.373 8.47366C29.8438 8.57324 30.3145 8.67281 30.7787 8.50686C30.9776 8.44047 31.0638 8.28115 31.024 8.08201Z" fill="#8DC2E9"/>
<path d="M24.4397 5.57274C24.1744 5.49308 23.9092 5.5329 23.644 5.55946C23.5511 5.57273 22.7621 5.64575 22.7488 5.55946C22.7157 5.29393 22.3245 5.28065 22.3245 5.55946C22.3178 6.40251 23.9689 6.11043 24.4397 6.01086C24.6651 5.96439 24.6452 5.63912 24.4397 5.57274Z" fill="#8DC2E9"/>
<path d="M25.1824 25.295C24.4198 25.4344 22.0725 21.4846 22.4173 20.5619C22.7621 19.6392 26.1041 19.1745 27.1451 20.2167C28.1795 21.2589 26.4555 25.0626 25.1824 25.295Z" fill="#FFC63B"/>
<path d="M33.1393 17.3955C33.2255 17.0967 33.2586 16.7648 33.2122 16.413C33.0597 15.2646 31.9855 14.3087 30.8251 14.2954C29.068 14.2821 27.7418 16.3267 28.5441 17.8933C29.5984 19.9645 32.569 19.3073 33.1393 17.3955Z" fill="#304B6D"/>
<path d="M29.4724 15.1119C28.3585 15.4305 28.8491 17.1565 29.9631 16.8378C31.0705 16.5192 30.5798 14.7933 29.4724 15.1119Z" fill="white"/>
<path d="M21.1508 18.8957C21.237 18.597 21.2701 18.2651 21.2237 17.9132C21.0712 16.7648 19.997 15.8089 18.8366 15.7956C17.0795 15.7824 15.7533 17.8269 16.5557 19.3936C17.61 21.4647 20.5872 20.8075 21.1508 18.8957Z" fill="#304B6D"/>
<path d="M17.484 16.6055C16.37 16.9241 16.8607 18.6501 17.9747 18.3314C19.082 18.0194 18.598 16.2935 17.484 16.6055Z" fill="white"/>
</svg>
