<svg width="41" height="46" viewBox="0 0 41 46" fill="none" xmlns="http://www.w3.org/2000/svg">
<path d="M16.6205 46C24.167 46 30.2847 44.8086 30.2847 43.3388C30.2847 41.8691 24.167 40.6777 16.6205 40.6777C9.07392 40.6777 2.95622 41.8691 2.95622 43.3388C2.95622 44.8086 9.07392 46 16.6205 46Z" fill="#ABD2E5"/>
<path d="M30.6 2.8661C30.9022 1.28208 34.3183 -0.973563 34.7519 1.38346C36.9395 -0.568054 39.403 1.28208 38.273 3.85453C37.0971 6.52836 31.8613 7.84627 31.5132 3.96858" fill="#7F4217"/>
<path d="M12.5212 2.8661C12.219 1.28208 8.80291 -0.973563 8.36933 1.38346C6.18174 -0.568054 3.71823 1.28208 4.84816 3.85453C6.02407 6.52836 11.2598 7.84627 11.608 3.96858" fill="#7F4217"/>
<path d="M23.7482 0.00219324C6.05037 0.255637 3.87592 9.36693 3.99417 18.5036C4.11241 27.6402 4.10584 36.346 0 39.1022C0 39.1022 27 49.6138 36.5387 33.1526C46.2417 16.4127 39.2782 -0.21957 23.7482 0.00219324Z" fill="#CF974C"/>
<path d="M21.2387 10.4631C20.1613 4.08263 12.9022 2.53029 9.01972 7.70687C5.13723 12.8835 8.10658 18.06 13.3621 18.1678C18.6175 18.2755 22.1519 15.8614 21.2387 10.4631Z" fill="#FFCF86"/>
<path d="M23.8336 12.1168C24.911 5.73635 32.1701 4.18401 36.0526 9.36059C39.9351 14.5372 36.9658 19.7138 31.7103 19.8215C26.4548 19.9292 22.9205 17.5088 23.8336 12.1168Z" fill="#FFCF86"/>
<path d="M19.5241 18.7253C20.0891 18.06 22.9467 17.9523 23.6365 19.2766C24.3197 20.6008 21.5803 23.243 20.8971 23.3507C20.2073 23.4584 18.4927 19.9355 19.5241 18.7253Z" fill="#F79D28"/>
<path d="M36.5388 33.1526C39.022 28.8757 40.4081 24.6052 40.8417 20.6198C36.9263 21.4498 32.6169 25.3719 31.257 28.825C30.6001 30.4978 30.5344 32.8991 32.9716 31.3151C31.6709 32.9815 30.9614 34.4071 31.2767 36.6121C31.3687 37.2584 31.5395 37.8856 31.7957 38.4559C33.6285 37.119 35.2446 35.3829 36.5388 33.1526Z" fill="#7F4217"/>
<path d="M4.03359 15.9628C3.99417 16.8055 3.9876 17.6545 3.99417 18.5036C4.08614 26.1005 4.10585 33.387 1.74745 37.214C2.24672 37.5308 2.7657 37.7589 3.29782 37.8793C4.73651 38.1961 6.75987 36.9859 7.35111 35.7124C7.81096 34.724 7.49564 33.3807 7.55476 32.3036C9.33505 32.0501 9.946 30.8526 10.0577 29.0912C10.2088 26.6708 9.44016 23.8766 8.47447 21.6843C7.76498 20.0939 5.94527 17.3441 4.03359 15.9628Z" fill="#7F4217"/>
<path d="M34.2395 29.0532C34.003 28.9708 33.4052 28.9644 33.3263 28.6983C33.2672 28.5019 33.346 28.2295 33.4117 28.0394C33.4774 27.8556 33.5628 27.6085 33.2935 27.5198C33.2803 27.5135 33.2738 27.5135 33.2606 27.5071C33.1621 27.4755 33.0176 27.5071 32.9453 27.5895C32.5643 28.033 32.3475 28.749 32.6628 29.2813C32.965 29.7881 33.7073 29.8768 34.2395 29.7565C34.6271 29.6678 34.5745 29.1672 34.2395 29.0532Z" fill="#CF974C"/>
<path d="M36.8672 28.3879C36.6636 28.3182 36.3942 28.2295 36.23 28.1027C36.0263 27.9443 36.1052 27.7036 35.9935 27.4945C35.9212 27.3551 35.7242 27.3171 35.5862 27.3931C35.1132 27.6592 35.3037 28.3308 35.5731 28.6603C35.8884 29.0532 36.3745 29.1925 36.8672 29.0975C37.2614 29.0215 37.1957 28.5019 36.8672 28.3879Z" fill="#CF974C"/>
<path d="M38.2205 25.581C38.0234 25.4099 37.8132 25.2578 37.6095 25.0868C37.3796 24.8967 37.2613 24.7256 37.5044 24.4975C37.6884 24.3201 37.4453 23.997 37.2219 24.149C36.2759 24.789 37.1628 25.7521 37.9511 26.0308C38.2139 26.1259 38.4176 25.7584 38.2205 25.581Z" fill="#CF974C"/>
<path d="M35.3957 31.6319C35.3037 31.6193 35.238 31.4925 35.2183 31.4292C35.1723 31.2898 35.1395 31.1631 35.2577 31.03C35.422 30.8399 35.2709 30.4598 34.9818 30.5675C34.0293 30.916 34.4629 32.6394 35.4877 32.2275C35.8161 32.1008 35.7636 31.6763 35.3957 31.6319Z" fill="#CF974C"/>
<path d="M6.85839 21.2344C6.74014 20.9683 6.36569 21.133 6.34598 21.3675C6.33284 21.5259 6.37226 21.6653 6.43139 21.811C6.47737 21.9251 6.66131 22.2102 6.56277 22.3306C6.48394 22.4319 6.12263 22.4953 6.00438 22.546C5.72846 22.6664 5.49854 22.8565 5.30146 23.0655C5.01241 23.376 5.29489 23.8259 5.70876 23.7435C6.22774 23.6421 7.06204 23.2683 7.30511 22.7678C7.58759 22.1595 7.08832 21.7413 6.85839 21.2344Z" fill="#CF974C"/>
<path d="M7.77155 24.168C7.6533 23.8702 7.246 23.9906 7.29199 24.2947C7.35111 24.7256 7.50877 25.1248 7.16717 25.4859C6.95038 25.7204 6.6022 25.8661 6.32629 26.0372C5.98468 26.2463 6.21461 26.7151 6.59563 26.6454C7.12775 26.5504 7.53505 26.2906 7.84381 25.8534C8.23797 25.2958 7.99491 24.7256 7.77155 24.168Z" fill="#CF974C"/>
<path d="M6.61532 27.298C6.4905 27.1016 6.21459 27.1587 6.14232 27.3551C6.03721 27.6212 6.02407 27.8239 5.74159 27.9697C5.51166 28.0901 5.17663 28.1091 4.92042 28.1724C4.55254 28.2611 4.56568 28.7744 4.92042 28.8757C5.40655 29.0151 5.91239 28.8884 6.29999 28.5716C6.6613 28.2675 6.87809 27.7226 6.61532 27.298Z" fill="#CF974C"/>
<path d="M8.71753 28.787C8.65184 28.5336 8.24454 28.5273 8.17884 28.787C8.10001 29.1102 8.0803 29.3446 7.81096 29.5727C7.57446 29.7755 7.25257 29.9022 6.99636 30.0796C6.64162 30.3267 6.85184 30.8336 7.29198 30.7512C7.76498 30.6625 8.15257 30.4344 8.4679 30.0796C8.8095 29.6931 8.84235 29.2622 8.71753 28.787Z" fill="#CF974C"/>
<path d="M5.91245 31.7143C5.75478 31.4925 5.43289 31.6319 5.4723 31.8917C5.52486 32.2275 5.60369 32.538 5.49858 32.8738C5.43946 33.0639 5.16354 33.2476 5.02559 33.3807C4.81537 33.5835 5.03216 34.0143 5.33435 33.8939C5.74165 33.7292 6.0307 33.5518 6.18179 33.1399C6.35259 32.6837 6.18179 32.0881 5.91245 31.7143Z" fill="#CF974C"/>
<path d="M4.55256 34.7366C4.3292 34.6226 4.15183 34.876 4.29636 35.0534C4.36862 35.1421 4.10585 35.3386 4.04672 35.3829C3.96132 35.4526 3.86935 35.516 3.76424 35.5666C3.6657 35.6173 3.65256 35.611 3.56059 35.554C3.33066 35.4082 2.99563 35.706 3.173 35.9278C3.3438 36.1496 3.54745 36.2826 3.84307 36.2826C4.13212 36.2826 4.38176 36.0735 4.55256 35.8708C4.82848 35.5413 5.06497 34.9901 4.55256 34.7366Z" fill="#CF974C"/>
<path d="M16.8109 12.9912C16.9752 12.7377 17.0934 12.4463 17.146 12.1041C17.3168 11.008 16.5416 9.84848 15.4445 9.53801C13.7759 9.06914 11.9628 10.6025 12.2978 12.2499C12.7445 14.4295 15.7533 14.6005 16.8109 12.9912Z" fill="#7F4217"/>
<path d="M33.2541 14.4231C33.4183 14.1697 33.5366 13.8782 33.5891 13.5361C33.7599 12.4399 32.9847 11.2804 31.8877 10.97C30.219 10.5011 28.4059 12.0344 28.7409 13.6818C29.1877 15.8614 32.1964 16.0325 33.2541 14.4231Z" fill="#7F4217"/>
<path d="M30.3701 11.3691C29.227 11.3691 29.227 13.0862 30.3701 13.0862C31.5197 13.0799 31.5197 11.3691 30.3701 11.3691Z" fill="white"/>
<path d="M13.6577 10.1019C13.2044 10.1019 12.8234 10.4694 12.8234 10.9066C12.8234 11.3438 13.2044 11.7113 13.6577 11.7113C14.111 11.7113 14.492 11.3438 14.492 10.9066C14.4854 10.4631 14.111 10.1019 13.6577 10.1019Z" fill="white"/>
<path d="M16.2132 25.4923C15.7139 25.5683 15.3526 25.7204 14.919 25.9548C14.3278 26.2716 13.7891 25.7204 13.4869 25.3022C13.3621 25.1311 13.0139 25.1121 12.9745 25.3656C12.8628 26.0625 13.5329 26.6454 14.1373 26.9116C14.538 27.089 14.9519 27.07 15.3658 26.9559C15.8716 26.8165 16.1344 26.4934 16.5482 26.2273C16.949 25.9611 16.6796 25.4162 16.2132 25.4923Z" fill="#C1662F"/>
<path d="M22.6051 26.6201C22.0993 26.6138 21.646 26.9876 21.1467 26.8735C20.6606 26.7658 20.4898 26.1956 20.2205 25.8661C20.0431 25.6443 19.7278 25.8154 19.6424 26.0118C19.3402 26.7151 20.1351 27.5452 20.7066 27.8746C21.4555 28.3055 22.5526 27.9824 23.0256 27.3297C23.2555 27.0319 22.9533 26.6201 22.6051 26.6201Z" fill="#C1662F"/>
<path d="M28.1299 27.5325C27.6701 27.2727 27.2956 27.5705 26.8161 27.5008C26.5599 27.4628 26.0869 27.2664 26.0409 27.0003C25.9818 26.6454 25.4299 26.6835 25.338 27.0003C25.1737 27.5705 25.627 28.0647 26.0737 28.3752C26.6913 28.8124 27.8409 28.8504 28.3205 28.2295C28.4913 28.0077 28.3533 27.6592 28.1299 27.5325Z" fill="#C1662F"/>
<path d="M19.0642 29.4397C18.3416 29.6487 16.4431 30.3711 16.1737 29.2116C16.0883 28.8504 15.5956 28.9771 15.5562 29.2939C15.4642 30.0162 16.1343 30.4471 16.7584 30.6562C17.6715 30.9666 18.7752 30.7449 19.4913 30.143C19.8197 29.8642 19.4715 29.3256 19.0642 29.4397Z" fill="#C1662F"/>
<path d="M25.4562 30.8526C25.0883 30.992 24.6942 31.1314 24.2934 31.1187C23.8599 31.0997 23.8664 30.7132 23.7745 30.4154C23.6825 30.1239 23.2424 30.0416 23.0847 30.3267C22.684 31.03 23.2029 31.841 23.919 32.0945C24.6548 32.3542 25.5613 32.1705 25.9752 31.4989C26.1657 31.1884 25.8372 30.7069 25.4562 30.8526Z" fill="#C1662F"/>
<path d="M15.3723 32.2339C15.057 32.4493 14.6562 32.6647 14.2621 32.7091C14.0584 32.7281 13.3818 32.6457 13.2964 32.4176C13.1913 32.1515 12.8431 32.1515 12.738 32.4176C12.5278 32.9562 13.3227 33.2983 13.7234 33.4377C14.6102 33.7482 15.3197 33.349 15.7993 32.6394C15.957 32.3986 15.6219 32.0565 15.3723 32.2339Z" fill="#C1662F"/>
<path d="M21.2058 33.6722C20.8642 33.9383 20.4307 33.9826 20.0234 33.8686C19.5898 33.7482 19.3139 33.3744 18.9 33.2603C18.7489 33.2223 18.6044 33.3364 18.5978 33.4821C18.5781 34.0967 19.3796 34.6352 19.9183 34.819C20.746 35.0914 21.3504 34.8063 21.7774 34.103C22.0073 33.7292 21.5146 33.4314 21.2058 33.6722Z" fill="#C1662F"/>
<path d="M27.4139 34.6606C27.3351 34.6352 27.2497 34.6289 27.1709 34.6606C27.0986 34.6796 27.0329 34.7176 26.9804 34.7683C26.9409 34.7683 26.8752 34.7746 26.8555 34.7746C26.757 34.7746 26.665 34.7493 26.5731 34.724C26.3694 34.6606 26.2315 34.4578 26.1263 34.2931C25.9161 33.9636 25.2986 34.179 25.4563 34.5655C25.6402 35.0091 25.8964 35.3892 26.3628 35.5857C26.7964 35.7694 27.3877 35.8708 27.6833 35.4146C27.8541 35.1485 27.7293 34.7556 27.4139 34.6606Z" fill="#C1662F"/>
<path d="M17.8424 36.5044C17.3365 36.5994 16.7321 36.6881 16.246 36.4791C15.8781 36.3207 15.6482 35.9595 15.4446 35.6427C15.2343 35.3196 14.7548 35.5983 14.919 35.9405C15.1752 36.46 15.4708 36.8972 15.9964 37.2014C16.6927 37.6069 17.4219 37.3788 18.0723 37.0303C18.3876 36.8719 18.1643 36.4474 17.8424 36.5044Z" fill="#C1662F"/>
<path d="M24.6219 36.6375C24.3657 36.8592 24.0766 37.0303 23.735 37.0936C23.5445 37.1317 23.3146 37.1127 23.1241 37.0873C22.9073 37.0556 22.8679 37.0049 22.8285 36.8022C22.7562 36.403 22.1387 36.5234 22.1255 36.8909C22.0993 37.6386 22.6708 37.9047 23.354 37.9934C24.1817 38.1011 24.8321 37.8096 25.2066 37.0746C25.3971 36.7071 24.9504 36.3587 24.6219 36.6375Z" fill="#C1662F"/>
<path d="M24.681 4.95068C24.6154 4.74159 24.3526 4.55151 24.1161 4.64021C23.8796 4.73525 23.7285 4.85564 23.584 5.05839C23.5051 5.16611 23.4197 5.26748 23.2686 5.28016C22.973 5.31184 22.638 5.21046 22.4672 4.97602C22.3029 4.7606 21.9548 4.77327 21.8694 5.05206C21.6657 5.692 22.546 6.12919 23.065 6.2369C23.827 6.38897 24.9504 5.82506 24.681 4.95068Z" fill="#C1662F"/>
<path d="M20.6344 1.68127C20.365 1.80165 20.1482 1.99807 19.8855 2.13747C19.5767 2.3022 19.1825 2.22617 18.9001 2.07411C18.7292 1.95372 18.4468 2.15647 18.5256 2.35289C18.9526 3.38568 20.7263 3.03085 21.1205 2.16281C21.2782 1.83333 20.976 1.5292 20.6344 1.68127Z" fill="#C1662F"/>
<path d="M27.2234 2.11211C26.9278 2.06143 26.6453 2.1628 26.3431 2.18181C26.0343 2.20082 25.7387 2.15013 25.4497 2.03608C25.1672 1.92203 25.0226 2.34021 25.2526 2.48594C25.7518 2.81542 26.8949 3.20192 27.3679 2.65068C27.519 2.48594 27.4993 2.15647 27.2234 2.11211Z" fill="#C1662F"/>
<path d="M14.446 3.1829C14.0322 3.57574 13.3621 3.21458 12.9088 3.06885C12.7183 3.01183 12.4752 3.17023 12.4949 3.37298C12.5475 3.9369 13.1716 4.05728 13.6446 4.19667C14.2489 4.38042 14.7614 4.17767 15.0635 3.63276C15.2738 3.26527 14.7745 2.87877 14.446 3.1829Z" fill="#C1662F"/>
<path d="M33.9504 4.01293C33.8913 3.87354 33.7796 3.72147 33.6022 3.74048C33.5628 3.74681 33.2409 3.79117 33.4905 3.77216C33.4249 3.77849 33.3395 3.7975 33.2869 3.7975C33.1686 3.81017 33.0438 3.81018 32.9256 3.82285C32.6431 3.84186 32.3738 3.75315 32.0978 3.80384C31.8811 3.84819 31.8482 4.15232 32.0387 4.24737C32.4 4.43111 32.7745 4.56417 33.1752 4.60219C33.3526 4.62119 33.5431 4.60852 33.7008 4.51982C33.8519 4.43111 34.0227 4.19034 33.9504 4.01293Z" fill="#C1662F"/>
<path d="M13.8351 22.0518C13.3424 21.9567 12.8825 22.0454 12.3898 22.0201C12.0548 22.0011 11.8774 21.678 11.5292 21.6906C11.3256 21.697 11.1613 21.9377 11.273 22.1088C11.3847 22.4383 11.7066 22.6854 12.0285 22.8184C12.6066 23.0529 13.2701 22.9578 13.8285 22.7361C14.1372 22.6157 14.2292 22.1278 13.8351 22.0518Z" fill="#C1662F"/>
<path d="M30.1665 24.9284C30.1139 25.0361 30.2125 24.9854 30.0548 25.0044C29.9168 25.0171 29.7657 25.0107 29.6278 24.9854C29.411 24.9474 29.1876 24.8903 28.9708 24.865C28.7672 24.8397 28.5833 25.0868 28.6555 25.2642C28.8198 25.6697 29.4044 25.9231 29.838 25.9485C30.3898 25.9802 30.8825 25.695 30.8694 25.1058C30.8431 24.7826 30.3241 24.5862 30.1665 24.9284Z" fill="#C1662F"/>
<path d="M25.8307 22.546C25.6533 22.451 25.4825 22.3686 25.2854 22.3242C25.1869 22.2989 25.0883 22.2735 24.9964 22.2355C24.8584 21.868 24.1686 21.8237 24.0964 22.2735C24.0307 22.6981 24.2935 22.9768 24.6679 23.1416C24.9832 23.281 25.2723 23.3317 25.6139 23.3253C26.0343 23.3127 26.2183 22.7551 25.8307 22.546Z" fill="#C1662F"/>
<path d="M17.8424 20.8669C17.5336 20.7909 17.0869 20.6832 16.7716 20.7909C16.5285 20.8796 16.4694 21.1837 16.6993 21.3231C16.9621 21.4815 17.3234 21.5385 17.6124 21.6526C17.8949 21.7603 18.4139 21.9377 18.5322 21.5195C18.657 21.114 18.1577 20.943 17.8424 20.8669Z" fill="#C1662F"/>
<path d="M33.8322 21.811C33.5694 21.792 33.3329 21.8934 33.0767 21.9187C32.8402 21.9441 32.6168 21.8617 32.3803 21.868C32.0716 21.8744 31.927 22.2925 32.2161 22.4446C32.3409 22.508 32.4395 22.5967 32.5708 22.6537C32.7548 22.7361 32.965 22.7551 33.1687 22.7741C33.5562 22.8058 33.9241 22.6727 34.1475 22.3622C34.338 22.1151 34.0949 21.83 33.8322 21.811Z" fill="#C1662F"/>
<path d="M11.608 18.833C10.9183 18.9344 10.5701 18.6239 10.1497 18.1424C9.90659 17.8636 9.54527 18.2184 9.67009 18.5036C10.0183 19.2956 11.1088 19.8785 11.8774 19.2766C12.1139 19.0928 11.8445 18.8014 11.608 18.833Z" fill="#C1662F"/>
<path d="M11.608 37.8983C11.3255 37.892 11.0102 37.9363 10.7409 37.8603C10.5372 37.8033 10.3796 37.5815 10.3007 37.4041C10.2416 37.2647 10.0117 37.252 9.91314 37.3534C9.60438 37.6829 9.93285 38.1708 10.1825 38.4369C10.6095 38.8868 11.2927 38.7917 11.7985 38.5636C12.1467 38.4052 11.9496 37.9047 11.608 37.8983Z" fill="#C1662F"/>
<path d="M20.7394 39.6724C20.1876 39.7041 19.6358 39.6788 19.2548 39.2416C18.9723 38.9248 18.4467 39.3366 18.6635 39.6788C18.8869 40.0273 19.2219 40.2997 19.6161 40.4581C20.0825 40.6482 20.4898 40.5215 20.9168 40.2997C21.2256 40.154 21.0942 39.6534 20.7394 39.6724Z" fill="#C1662F"/>
<path d="M29.1811 37.8667C28.6621 38.006 28.2679 37.9047 27.8475 37.6005C27.519 37.3661 27.1905 37.854 27.4336 38.1201C28.0117 38.7537 28.8 39.0135 29.5095 38.4116C29.7657 38.1898 29.4898 37.7843 29.1811 37.8667Z" fill="#C1662F"/>
</svg>
