<svg width="37" height="46" viewBox="0 0 37 46" fill="none" xmlns="http://www.w3.org/2000/svg">
<path d="M18.1195 46C25.4008 46 31.3035 44.8081 31.3035 43.3379C31.3035 41.8676 25.4008 40.6757 18.1195 40.6757C10.8382 40.6757 4.93556 41.8676 4.93556 43.3379C4.93556 44.8081 10.8382 46 18.1195 46Z" fill="#ABD2E5"/>
<path d="M6.79273 5.75092C6.723 4.65437 6.89414 2.79087 5.73421 2.15702C4.39679 1.4281 4.24467 2.77185 3.99748 3.59585C2.6981 2.61339 -1.24441 3.55148 0.390903 5.49738C1.37336 6.66365 5.61378 8.98352 6.53285 6.80944" fill="#FFD73D"/>
<path d="M6.24128 5.57344C6.36805 3.95714 4.45384 3.04441 4.54258 4.98397C3.89606 4.64169 2.39385 4.20434 2.19735 5.19314C1.88043 6.75239 4.97359 6.44815 5.87365 6.44815C5.80393 6.44815 5.72787 6.44815 5.65814 6.44815" fill="#FDB93E"/>
<path d="M25.9221 3.96348C25.8841 2.86693 25.5228 1.02878 26.6067 0.280844C27.8617 -0.581183 28.1532 0.74355 28.4828 1.53586C29.6745 0.426629 33.693 0.952719 32.2606 3.05708C31.4049 4.31843 27.418 7.05663 26.2834 4.9903" fill="#FFD73D"/>
<path d="M26.5116 3.74163C26.4356 3.16483 26.2074 1.47881 27.2405 1.52952C27.8427 1.56121 27.7413 2.32816 28.0455 2.55634C28.5716 2.94933 28.8442 2.64508 29.4527 2.48662C31.2401 2.01758 32.2352 3.08243 30.2069 3.96348C29.1864 4.40083 26.8095 6.04882 26.5116 3.74163Z" fill="#FDB93E"/>
<path d="M33.6487 21.9583C35.6516 22.9218 36.4249 26.5283 36.577 28.5313C36.6277 29.2095 36.7735 31.1174 36.0002 31.5484C35.715 31.7068 35.2713 31.4723 34.9798 31.4343C34.8593 32.6576 35.1889 33.6274 34.5297 34.8127C34.1431 35.5099 33.3318 36.2452 32.6345 35.4212C32.6219 36.936 31.4746 39.2115 30.2133 40.0926C27.7159 41.8357 24.8446 40.8278 23.6023 38.115C22.7212 36.1881 22.9177 33.3675 23.1649 31.3012C23.4121 29.2729 24.3756 26.503 25.8714 25.0261C27.9124 23.0042 30.2196 21.8189 32.9895 22.7696" fill="#FFD73D"/>
<path d="M3.00868 21.7365C1.00573 22.6999 0.232444 26.3065 0.0803218 28.3094C0.0296143 28.9876 -0.116171 30.8955 0.657118 31.3265C0.942348 31.485 1.38604 31.2505 1.6776 31.2124C1.79804 32.4357 1.46844 33.4055 2.12764 34.5908C2.51428 35.288 3.3256 36.0233 4.02283 35.1993C4.0355 36.7142 5.18276 38.9897 6.44411 39.8707C8.94146 41.6138 11.8128 40.606 13.0551 37.8931C13.9361 35.9663 13.7397 33.1457 13.4925 31.0793C13.2453 29.051 12.2818 26.2811 10.7859 24.8043C8.74497 22.7823 6.43777 21.597 3.66788 22.5478" fill="#FFD73D"/>
<path d="M3.15446 24.4556C1.96284 24.7472 0.714166 28.2397 1.15786 29.3172C1.86776 31.0349 3.87704 29.2412 4.89119 28.9369C3.62351 29.6405 3.17982 31.6308 3.37631 32.9618C3.69323 35.1296 5.39193 34.0647 6.82442 33.7985C6.07648 34.6922 5.87365 35.8268 6.46313 36.879C7.10965 38.0326 8.66256 39.1101 9.91757 38.1277C12.3959 36.1881 11.0838 31.8589 9.91757 29.6278C8.89075 27.6692 7.63574 26.2938 6.03211 24.8106C5.25249 24.088 4.5616 23.5683 3.44603 23.6507" fill="#FDB93E"/>
<path d="M33.7057 24.4556C34.8974 24.7472 36.146 28.2397 35.7023 29.3172C34.9924 31.0349 32.9831 29.2412 31.969 28.9369C33.2367 29.6405 33.6804 31.6308 33.4839 32.9618C33.167 35.1296 31.4683 34.0647 30.0358 33.7985C30.7837 34.6922 30.9865 35.8268 30.3971 36.879C29.7505 38.0326 28.1976 39.1101 26.9426 38.1277C24.4643 36.1881 25.7763 31.8589 26.9426 29.6278C27.9694 27.6692 29.2244 26.2938 30.8281 24.8106C31.6077 24.088 32.2986 23.5683 33.4142 23.6507" fill="#FDB93E"/>
<path d="M6.16523 4.76845C-0.490132 9.7885 1.39238 21.147 3.5221 28.7151C5.65181 36.2832 10.3549 44.2126 19.4633 44.0668C28.5716 43.921 32.755 31.8019 34.9607 21.8125C37.1665 11.8231 31.8042 5.28821 26.3658 2.56902C20.9274 -0.150174 10.3549 1.61191 6.16523 4.76845Z" fill="#3FBC9B"/>
<path d="M18.728 23.4985C18.1956 23.4985 16.2307 21.5907 16.9659 20.2659C17.7012 18.9412 20.1161 19.6891 20.2683 20.342C20.5598 21.5907 19.4633 23.4985 18.728 23.4985Z" fill="#FFD73D"/>
<path d="M24.8763 8.74266C19.3175 9.6554 18.8294 20.0441 24.0459 21.9266C29.2625 23.8091 33.4205 19.0997 33.4205 15.4931C33.4205 11.8865 31.0753 7.72217 24.8763 8.74266Z" fill="#FFFABC"/>
<path d="M7.54067 9.55397C1.98186 10.4667 1.4938 20.8554 6.71033 22.7379C11.9269 24.6204 16.0849 19.911 16.0849 16.3044C16.0849 12.6978 13.7397 8.53348 7.54067 9.55397Z" fill="#FFFABC"/>
<path d="M9.03018 26.6994C8.58015 26.915 8.27591 27.327 7.73714 27.1938C7.42656 27.1178 7.16034 26.6487 6.81173 26.8706C6.67862 26.953 6.71032 27.1431 6.8561 27.1938C7.09062 27.2699 7.21739 27.5108 7.42022 27.6312C7.62939 27.758 7.83856 27.815 8.07942 27.8467C8.59283 27.9101 9.08089 27.5171 9.38514 27.1558C9.59431 26.9023 9.33443 26.56 9.03018 26.6994Z" fill="#35A387"/>
<path d="M14.2404 26.6931C13.9552 26.915 13.6572 27.1748 13.2769 27.2002C12.9727 27.2192 12.4593 27.0544 12.3262 26.7502C12.2374 26.5537 11.9142 26.6107 11.8761 26.8072C11.7557 27.346 12.4656 27.6882 12.8776 27.8277C13.6509 28.0939 14.215 27.6882 14.646 27.0924C14.8172 26.8643 14.4749 26.5156 14.2404 26.6931Z" fill="#35A387"/>
<path d="M20.2809 26.3508C19.8626 26.5854 19.4823 26.915 19.0323 27.0861C18.4491 27.3079 18.0371 26.9023 17.6251 26.579C17.4603 26.4459 17.1434 26.6234 17.3019 26.8326C17.7012 27.3587 18.1068 27.6629 18.7851 27.739C19.5076 27.8214 20.1542 27.2446 20.6042 26.7692C20.8197 26.5537 20.5471 26.2051 20.2809 26.3508Z" fill="#35A387"/>
<path d="M25.789 26.8769C25.0284 27.1495 24.2488 27.2889 23.6593 26.6361C23.5135 26.4713 23.1903 26.6424 23.2727 26.8579C23.729 28.0052 25.1869 27.9037 26.0045 27.2509C26.1883 27.1178 25.9982 26.8072 25.789 26.8769Z" fill="#35A387"/>
<path d="M30.4795 26.972C30.1689 27.0417 29.8773 27.1812 29.5667 27.2636C29.3449 27.3206 28.7237 27.2953 28.711 26.953C28.7047 26.7185 28.3244 26.6424 28.2864 26.8959C28.223 27.3523 28.5209 27.6692 28.9329 27.8277C29.5667 28.0686 30.2386 27.8467 30.752 27.4474C30.9929 27.2572 30.7267 26.915 30.4795 26.972Z" fill="#35A387"/>
<path d="M11.1663 29.3553C10.8874 29.4694 10.6402 29.6151 10.3803 29.7609C9.91758 30.0081 9.63868 29.6595 9.37881 29.3299C9.25838 29.1841 9.04921 29.3426 9.08724 29.501C9.18232 29.9384 9.52459 30.3187 9.98096 30.3821C10.5451 30.4518 11.0078 30.1222 11.4134 29.7799C11.5973 29.6151 11.4008 29.2602 11.1663 29.3553Z" fill="#35A387"/>
<path d="M17.1371 29.3933C16.5032 29.7356 15.4637 30.2997 15.1151 29.3172C15.02 29.0574 14.6334 29.1588 14.6968 29.4313C14.8235 29.9764 15.1278 30.249 15.6475 30.4265C16.3574 30.6737 16.9406 30.2173 17.4223 29.7609C17.6188 29.5708 17.3652 29.2665 17.1371 29.3933Z" fill="#35A387"/>
<path d="M22.8607 29.7482C22.2965 30.0398 21.162 30.2807 20.826 29.5581C20.7246 29.3489 20.4204 29.4694 20.414 29.6722C20.395 30.2046 20.9274 30.4962 21.3775 30.6166C22.0557 30.7941 22.6388 30.5722 23.1586 30.1412C23.3868 29.9511 23.1015 29.6278 22.8607 29.7482Z" fill="#35A387"/>
<path d="M27.9061 30.0588C27.5765 30.1919 27.2215 30.3757 26.8602 30.4011C26.4989 30.4328 26.182 30.0715 26.0235 29.7863C25.9285 29.6215 25.6306 29.6848 25.6496 29.8877C25.694 30.325 26.0933 30.8384 26.5243 30.9652C27.1454 31.149 27.6906 30.9082 28.1786 30.5279C28.4005 30.3567 28.1596 29.9574 27.9061 30.0588Z" fill="#35A387"/>
<path d="M13.6953 32.0618C13.4291 32.3343 13.1692 32.6005 12.7699 32.6005C12.3008 32.6069 11.9902 32.309 11.6163 32.0871C11.4705 32.0047 11.3247 32.1378 11.3564 32.29C11.4642 32.8541 12.2628 33.1837 12.7699 33.228C13.4291 33.2851 13.7904 32.9111 14.0946 32.3724C14.2404 32.1188 13.9044 31.8526 13.6953 32.0618Z" fill="#35A387"/>
<path d="M19.2794 32.2075C18.9118 32.8477 17.9991 32.7463 17.53 32.2646C17.3969 32.1251 17.1307 32.3153 17.2511 32.4801C17.8406 33.2534 19.3872 33.564 19.6598 32.3723C19.7168 32.1378 19.3999 31.992 19.2794 32.2075Z" fill="#35A387"/>
<path d="M25.1171 32.2583C24.7749 32.3026 24.4579 32.4484 24.1157 32.4864C23.8938 32.5118 23.4248 32.4357 23.3424 32.1822C23.2727 31.973 23.0001 31.9794 22.9304 32.1822C22.7909 32.5688 23.2283 32.8541 23.5262 32.9872C24.103 33.2471 24.7305 33.0569 25.2566 32.7653C25.4784 32.6449 25.3897 32.2266 25.1171 32.2583Z" fill="#35A387"/>
<path d="M16.1799 35.6303C15.8567 35.8268 15.5461 35.9979 15.1595 35.9853C14.8425 35.9789 14.4052 35.8205 14.2721 35.5162C14.177 35.3007 13.8411 35.4592 13.8981 35.6747C14.0312 36.1627 14.5066 36.3719 14.9503 36.4987C15.5144 36.6635 16.0975 36.4416 16.4715 36.0106C16.649 35.8078 16.4271 35.4782 16.1799 35.6303Z" fill="#35A387"/>
<path d="M22.7973 35.5035C22.455 35.8205 22.1318 36.055 21.6564 36.1057C21.3648 36.1374 21.0669 36.0106 20.8451 35.8268C20.6676 35.6747 20.6422 35.5669 20.4077 35.5162C20.1351 35.4655 19.945 35.8395 20.2112 35.9789C20.4394 36.1057 20.5979 36.4099 20.8324 36.5621C21.1176 36.7395 21.4979 36.7712 21.8212 36.7459C22.4614 36.7015 22.8607 36.3149 23.2093 35.8141C23.3931 35.5669 23.0128 35.3071 22.7973 35.5035Z" fill="#35A387"/>
<path d="M19.0386 39.2115C18.671 39.3953 18.3667 39.4587 17.9547 39.3763C17.8153 39.351 17.2828 39.2432 17.2131 39.1101C17.1054 38.8946 16.7821 39.0467 16.8328 39.2686C16.9215 39.6489 17.4793 39.8073 17.8026 39.9214C18.4047 40.1496 18.8801 40.0355 19.3492 39.6172C19.5774 39.4144 19.2858 39.0911 19.0386 39.2115Z" fill="#35A387"/>
<path d="M8.88442 32.8984C8.66257 32.8731 8.44706 32.8984 8.21888 32.8984C7.95267 32.9048 7.73082 32.797 7.52165 32.6386C7.32516 32.4864 7.0843 32.816 7.26178 32.9808C7.72448 33.4119 8.34565 33.545 8.94146 33.3358C9.18866 33.2534 9.13162 32.9238 8.88442 32.8984Z" fill="#35A387"/>
<path d="M10.1648 36.017C10.019 36.0867 9.89856 36.1754 9.76545 36.2642C9.58164 36.3782 9.38515 36.2388 9.22669 36.1501C9.00484 36.036 8.79567 35.8965 8.54214 35.9726C8.35832 36.0296 8.40269 36.2832 8.5865 36.2958C8.7513 36.3085 8.92244 36.4797 9.05555 36.5684C9.22035 36.6825 9.36613 36.7586 9.56262 36.8093C9.89856 36.8917 10.2282 36.5874 10.431 36.3656C10.6021 36.1691 10.393 35.9029 10.1648 36.017Z" fill="#35A387"/>
<path d="M27.6462 35.6557C27.3356 36.0677 26.5053 36.0613 26.2391 35.5923C26.144 35.4212 25.8651 35.4972 25.8714 35.6937C25.8841 36.1311 26.3912 36.3466 26.7525 36.4543C27.2849 36.6064 27.792 36.3719 28.0202 35.8775C28.1406 35.6176 27.8173 35.4338 27.6462 35.6557Z" fill="#35A387"/>
<path d="M13.4164 38.9073C13.0107 39.1735 12.5037 39.2495 12.1043 38.9326C11.9205 38.7868 11.6543 39.034 11.8381 39.1988C12.3515 39.6679 13.1692 39.763 13.6446 39.1988C13.7714 39.0467 13.6066 38.7868 13.4164 38.9073Z" fill="#35A387"/>
<path d="M23.7607 38.958C23.4565 39.1164 23.1205 39.1988 22.886 38.8819C22.7212 38.6537 22.3409 38.8566 22.4994 39.1101C22.8543 39.6806 23.6213 39.8137 24.0523 39.2495C24.1917 39.0657 23.9319 38.8692 23.7607 38.958Z" fill="#35A387"/>
<path d="M18.4618 42.3237C18.4111 42.5772 18.1385 42.4378 17.9737 42.3617C17.8089 42.2857 17.5427 42.2159 17.4793 42.0258C17.3906 41.7532 16.9723 41.861 17.0483 42.1462C17.1624 42.5836 17.6505 42.7864 18.0308 42.9385C18.4681 43.1097 18.8865 42.8751 18.8611 42.3807C18.8421 42.1589 18.5062 42.0892 18.4618 42.3237Z" fill="#35A387"/>
<path d="M14.0312 3.64022C13.4861 3.84939 12.6304 4.43886 12.098 3.90644C11.9522 3.76065 11.686 3.95714 11.8128 4.12828C12.3515 4.87622 13.708 4.6924 14.2848 4.07124C14.4432 3.89376 14.2848 3.53881 14.0312 3.64022Z" fill="#35A387"/>
<path d="M18.0752 3.36132C17.435 3.64021 16.3448 4.22969 15.7109 3.59584C15.5524 3.43738 15.2545 3.65289 15.394 3.84304C16.0468 4.73676 17.7012 4.47688 18.3984 3.77966C18.6266 3.55147 18.3414 3.24723 18.0752 3.36132Z" fill="#35A387"/>
<path d="M22.8924 2.71481C22.8607 2.46761 22.5247 2.30915 22.3789 2.57537C22.2458 2.82257 22.1254 3.05075 21.8909 3.22189C21.4979 3.50078 21.0732 3.35499 20.6739 3.17752C20.4077 3.05709 20.1795 3.42472 20.4394 3.57684C20.9528 3.87475 21.4472 4.05222 22.0303 3.84305C22.4994 3.67825 22.9621 3.23456 22.8924 2.71481Z" fill="#35A387"/>
<path d="M12.5861 6.51153C12.3198 6.58759 12.1234 6.71436 11.9142 6.89184C11.5149 7.22777 11.2233 7.12002 10.7986 6.90451C10.6148 6.80944 10.4563 7.06931 10.6338 7.18341C10.9254 7.36722 11.255 7.58907 11.6163 7.53202C12.1107 7.45596 12.3325 7.09467 12.7128 6.82211C12.8649 6.71436 12.7825 6.45449 12.5861 6.51153Z" fill="#35A387"/>
<path d="M16.2497 6.61294C15.6158 6.92352 15.039 6.95522 14.4242 6.56857C14.2277 6.4418 13.9805 6.75239 14.1707 6.89817C14.8045 7.39891 16.0532 7.78555 16.5856 6.94888C16.7251 6.72703 16.4588 6.51153 16.2497 6.61294Z" fill="#35A387"/>
<path d="M21.0352 6.03614C20.3443 6.54955 19.4379 6.99958 18.6646 6.37208C18.4428 6.1946 18.1385 6.48617 18.3477 6.689C19.2478 7.56371 20.6169 7.30383 21.3521 6.35306C21.4916 6.17559 21.2127 5.90303 21.0352 6.03614Z" fill="#35A387"/>
<path d="M24.477 5.52907C24.2424 5.5671 24.0079 5.63683 23.7734 5.66218C23.5325 5.69387 23.3043 5.63049 23.0635 5.62415C22.8607 5.62415 22.8607 5.87769 23.0191 5.94741C23.5896 6.18827 24.084 6.20095 24.6354 5.88403C24.8382 5.77627 24.6861 5.49738 24.477 5.52907Z" fill="#35A387"/>
<path d="M18.9689 9.20536C18.6329 9.30044 18.3223 9.43988 17.9801 9.48425C17.5807 9.53496 17.1814 9.45256 16.8011 9.35115C16.5602 9.28776 16.4652 9.64272 16.6997 9.72512C17.4983 9.98499 18.4745 10.0991 19.1654 9.52862C19.3175 9.40819 19.1463 9.15466 18.9689 9.20536Z" fill="#35A387"/>
<path d="M11.4768 16.653C11.5592 16.3678 11.5909 16.0509 11.5465 15.7149C11.4008 14.6184 10.3739 13.7056 9.26471 13.693C7.58502 13.6803 6.31734 15.6325 7.08429 17.1284C8.0921 19.106 10.9317 18.4785 11.4768 16.653Z" fill="#055B4A"/>
<path d="M7.97167 14.4663C6.90681 14.7705 7.37585 16.4185 8.44071 16.1142C9.49923 15.8163 9.03019 14.1683 7.97167 14.4663Z" fill="white"/>
<path d="M29.1611 15.9368C29.2435 15.6516 29.2752 15.3346 29.2308 14.9987C29.085 13.9021 28.0582 12.9894 26.949 12.9767C25.2693 12.9641 24.0016 14.9163 24.7685 16.4122C25.7763 18.3898 28.616 17.7623 29.1611 15.9368Z" fill="#055B4A"/>
<path d="M25.6496 13.75C24.5847 14.0543 25.0538 15.7023 26.1186 15.398C27.1835 15.1001 26.7144 13.4521 25.6496 13.75Z" fill="white"/>
</svg>
