<svg width="38" height="47" viewBox="0 0 38 47" fill="none" xmlns="http://www.w3.org/2000/svg">
<path d="M18.4807 46.9292C26.0381 46.9292 32.1646 45.6921 32.1646 44.1661C32.1646 42.6401 26.0381 41.403 18.4807 41.403C10.9232 41.403 4.79671 42.6401 4.79671 44.1661C4.79671 45.6921 10.9232 46.9292 18.4807 46.9292Z" fill="#ABD2E5"/>
<path d="M29.1252 2.31166C29.0923 1.10116 28.7502 -0.208029 27.987 0.384065C27.6121 0.673533 27.2963 1.088 26.9739 1.43668C26.5923 1.85114 26.1384 2.35771 26.3555 2.96955C26.4344 3.1998 26.645 3.40374 26.9081 3.39058C27.2239 3.37085 27.4607 3.20638 27.6647 2.9827C27.7173 3.01559 27.7699 3.02875 27.8292 3.04191C27.8226 3.33796 27.8686 3.62085 28.0331 3.89716C28.237 4.23268 28.7041 4.21952 28.9081 3.89716C29.066 3.64716 29.1449 2.99586 29.1252 2.31166Z" fill="#FBAD18"/>
<path d="M6.52034 3.21295C5.42826 2.6998 4.09933 2.41033 4.28354 3.36426C4.37564 3.83136 4.6059 4.29845 4.77037 4.73923C4.96774 5.26554 5.21773 5.8971 5.86246 5.98263C6.10587 6.01552 6.38218 5.92342 6.48745 5.68C6.61244 5.39054 6.57297 5.10107 6.46771 4.82476C6.52034 4.79186 6.55981 4.75239 6.59271 4.70634C6.84928 4.84449 7.12559 4.9366 7.44795 4.91029C7.8361 4.87739 8.04005 4.45635 7.84268 4.1274C7.68479 3.87083 7.14533 3.50899 6.52034 3.21295Z" fill="#FBAD18"/>
<path d="M16.553 0.107751C1.2507 1.46957 -2.09792 19.1732 1.10597 31.0019C4.30986 42.8372 12.1979 44.3108 19.5135 44.1464C26.8292 43.9819 38 37.8176 38 27.7914C38 17.7653 35.9474 -1.6159 16.553 0.107751Z" fill="#8DC2E9"/>
<path d="M18.1122 10.2128C18.1122 10.2128 13.4281 5.03528 7.84268 9.22599C2.25726 13.4167 5.21116 26.4822 18.2767 25.6599C31.3422 24.8375 33.7238 17.035 31.5857 11.9365C29.4475 6.83787 23.2108 4.05504 18.1122 10.2128Z" fill="#FFEA76"/>
<path d="M17.0465 18.6797C17.4872 17.1732 20.8293 17.1995 21.6451 18.2719C22.4674 19.3376 20.8227 22.7915 20.1648 23.0349C19.5069 23.2784 16.632 20.0745 17.0465 18.6797Z" fill="#FBAD18"/>
<path d="M1.10597 31.0019C2.54015 36.2847 4.90194 39.5017 7.73084 41.4293C8.92818 40.2386 9.6058 38.5018 8.5203 37.0018C11.5992 37.0281 9.19791 32.5084 8.02688 31.5216C10.3624 31.4558 9.67159 29.923 8.38214 28.6269C6.26376 26.502 3.15856 24.3375 0.0270386 23.8705C0.1323 26.3572 0.500715 28.7848 1.10597 31.0019Z" fill="#FBAD18"/>
<path d="M38 27.798C38 26.4691 37.9605 24.9757 37.8553 23.3902C34.908 24.0086 32.033 26.048 30.0331 28.0546C28.737 29.3572 28.0528 30.8835 30.3883 30.9493C29.2173 31.9427 26.816 36.4623 29.8949 36.4294C28.9147 37.7781 29.3686 39.3241 30.3423 40.482C34.6053 37.6662 38 33.3242 38 27.798Z" fill="#FBAD18"/>
<path d="M32.1185 29.9032C32.033 29.7519 31.9212 29.6467 31.8028 29.5217C31.6514 29.3638 31.8028 28.9888 31.8751 28.8243C31.9935 28.5546 31.612 28.3112 31.4672 28.5875C31.3159 28.8769 31.1646 29.2519 31.2436 29.5875C31.3159 29.8967 31.5462 30.0546 31.7962 30.219C32.0001 30.3506 32.2238 30.094 32.1185 29.9032Z" fill="#8DC2E9"/>
<path d="M30.9015 33.9821C30.7896 33.9032 30.5857 33.7782 30.5659 33.6269C30.533 33.3769 30.7107 33.1663 30.6712 32.9098C30.6383 32.6927 30.3423 32.7058 30.2436 32.8505C30.0331 33.1598 29.8949 33.4821 29.987 33.8637C30.0659 34.2058 30.3949 34.3768 30.7041 34.4558C30.9936 34.5347 31.1449 34.1466 30.9015 33.9821Z" fill="#8DC2E9"/>
<path d="M33.579 35.0873C33.4475 34.8966 33.2961 34.7387 33.1251 34.5939C32.954 34.4426 32.8027 34.2913 32.8159 34.0479C32.829 33.7847 32.3948 33.7189 32.3554 33.9887C32.2567 34.6729 32.7961 35.0479 33.2961 35.3834C33.4606 35.4886 33.6974 35.265 33.579 35.0873Z" fill="#8DC2E9"/>
<path d="M32.6843 36.8768C32.487 36.9294 32.2699 37.0018 32.0988 36.8439C31.9607 36.7189 31.8817 36.5939 31.6712 36.5939C31.408 36.5939 31.3291 37.0281 31.6054 37.0676C31.6383 37.0741 31.7238 37.2255 31.7436 37.2584C31.8291 37.3636 31.9936 37.4426 32.1251 37.4623C32.3817 37.5083 32.6251 37.3768 32.8422 37.2649C33.0725 37.1531 32.9146 36.8176 32.6843 36.8768Z" fill="#8DC2E9"/>
<path d="M34.4803 31.4032C34.3488 31.2256 34.3224 31.0874 34.3488 30.844C34.3751 30.6072 33.9935 30.5611 33.9409 30.7914C33.8488 31.1861 33.8685 31.594 34.2567 31.8242C34.3225 31.8637 34.4211 31.8703 34.4803 31.8242C34.5067 31.8045 34.5396 31.7782 34.5659 31.7585C34.7303 31.6269 34.6514 31.4229 34.4803 31.4032Z" fill="#8DC2E9"/>
<path d="M36 28.2454C35.8882 27.9822 35.7303 27.7651 35.7303 27.4691C35.7303 27.1072 35.1974 27.1138 35.1777 27.4691C35.1448 27.8967 35.2961 28.2651 35.6053 28.548C35.829 28.7585 36.1053 28.5019 36 28.2454Z" fill="#8DC2E9"/>
<path d="M7.49401 29.0348C7.46769 28.7454 7.0598 28.7388 7.04007 29.0348C7.00717 29.4296 6.92823 29.7585 6.61902 30.0282C6.45455 30.173 6.6256 30.4756 6.83612 30.4032C7.4348 30.1927 7.55322 29.6006 7.49401 29.0348Z" fill="#8DC2E9"/>
<path d="M5.51377 29.9559C5.46772 29.7059 5.07299 29.7717 5.07299 30.0151C5.07957 30.3177 4.6651 30.3637 4.44142 30.4822C4.25722 30.5808 4.32958 30.9229 4.55326 30.8966C5.10588 30.8374 5.62561 30.6072 5.51377 29.9559Z" fill="#8DC2E9"/>
<path d="M3.54673 27.5349C3.52699 27.5349 3.50725 27.5349 3.48752 27.5283C3.37568 27.5217 3.31647 27.6138 3.31647 27.7059C3.19805 27.877 3.00068 27.9954 2.86253 28.1533C2.71779 28.3112 2.902 28.5743 3.09279 28.4559C3.37568 28.2848 3.64541 28.1401 3.75067 27.798C3.79672 27.6664 3.6783 27.5414 3.54673 27.5349Z" fill="#8DC2E9"/>
<path d="M6.88877 32.4821C6.87561 32.2321 6.49404 32.2256 6.49404 32.4821C6.49404 32.8177 6.46773 33.0874 6.29668 33.3834C6.198 33.5545 6.42168 33.7124 6.55983 33.5874C6.90851 33.2913 6.90851 32.9032 6.88877 32.4821Z" fill="#8DC2E9"/>
<path d="M4.21773 33.7189C3.99405 33.8571 3.71116 34.0611 3.62564 34.3176C3.57959 34.4558 3.7309 34.6137 3.86906 34.561C4.12563 34.4755 4.32957 34.1926 4.46773 33.9689C4.56641 33.8176 4.36905 33.6203 4.21773 33.7189Z" fill="#8DC2E9"/>
<path d="M8.03347 35.3308C7.9282 35.1005 7.55321 35.265 7.63215 35.5018C7.75715 35.8571 7.63215 36.1926 7.43479 36.5018C7.30979 36.6926 7.57295 36.857 7.73084 36.7321C8.18478 36.3636 8.2703 35.8571 8.03347 35.3308Z" fill="#8DC2E9"/>
<path d="M6.23086 37.686C6.17823 37.9886 5.96771 38.2123 5.9085 38.5083C5.86903 38.7123 6.11244 38.8833 6.27034 38.7189C6.52691 38.4491 6.65191 38.1136 6.66507 37.7452C6.67164 37.4952 6.27691 37.436 6.23086 37.686Z" fill="#8DC2E9"/>
<path d="M13.3689 27.752C12.7702 27.9888 11.6847 28.1072 11.3755 27.377C11.2965 27.1993 11.0071 27.2915 11.0137 27.4757C11.04 27.9428 11.415 28.1796 11.8097 28.3572C12.4215 28.6269 13.007 28.548 13.5399 28.1599C13.7307 28.0217 13.6255 27.6467 13.3689 27.752Z" fill="#2D9CDB"/>
<path d="M18.7701 28.9953C18.4938 29.0151 18.2241 29.0019 17.9478 29.0019C17.6649 28.9953 17.3359 28.969 17.2504 28.6532C17.178 28.3835 16.803 28.5019 16.8425 28.7651C16.9807 29.6861 18.1714 29.6072 18.8293 29.3967C19.0333 29.3243 19.0135 28.9756 18.7701 28.9953Z" fill="#2D9CDB"/>
<path d="M23.6582 26.8507C23.4213 26.9822 23.2042 27.1336 22.9608 27.252C22.5727 27.4428 22.1977 27.4099 21.7964 27.3178C21.4872 27.2454 21.3688 27.6927 21.6648 27.7914C22.4345 28.0612 23.6779 28.0414 24.02 27.127C24.0924 26.9164 23.8358 26.752 23.6582 26.8507Z" fill="#2D9CDB"/>
<path d="M25.7568 29.2651C25.5594 29.2519 25.3687 29.2651 25.1647 29.2717C24.9345 29.2717 24.7831 29.1664 24.6253 29.0085C24.3753 28.7651 24.0463 29.1203 24.2568 29.3769C24.4345 29.6006 24.645 29.7782 24.9213 29.8572C25.2239 29.9493 25.5397 29.8506 25.8292 29.7651C26.1186 29.6927 26.0397 29.2848 25.7568 29.2651Z" fill="#2D9CDB"/>
<path d="M21.7306 31.1664C21.1385 31.1993 20.6516 31.1532 20.1188 30.8901C19.8622 30.7651 19.6517 31.1203 19.8951 31.2782C20.4938 31.6598 21.1056 31.8835 21.7964 31.6532C22.0464 31.5677 22.02 31.1532 21.7306 31.1664Z" fill="#2D9CDB"/>
<path d="M14.9675 31.0479C14.4544 30.923 13.9807 30.8177 13.586 30.4427C13.382 30.2453 13.086 30.5414 13.2768 30.7519C13.6847 31.2058 14.2833 31.5479 14.9083 31.469C15.132 31.4361 15.2175 31.1072 14.9675 31.0479Z" fill="#2D9CDB"/>
<path d="M18.303 33.344C17.7372 33.5479 17.0925 33.5282 16.5991 33.1729C16.3623 33.0019 16.0925 33.3703 16.2965 33.5676C16.8886 34.1334 17.803 34.2453 18.4741 33.7387C18.6451 33.6005 18.553 33.2518 18.303 33.344Z" fill="#2D9CDB"/>
<path d="M14.6386 34.9097C14.1584 34.7058 13.6452 34.5873 13.2637 34.2124C13.0531 34.0084 12.7637 34.311 12.9479 34.5281C13.3689 35.0281 13.9479 35.2321 14.586 35.3176C14.836 35.3571 14.8294 34.9952 14.6386 34.9097Z" fill="#2D9CDB"/>
<path d="M23.3687 34.2058C23.0595 34.4755 22.5792 34.2255 22.2766 34.061C21.9674 33.89 21.7174 34.3308 22.0069 34.5281C22.52 34.8768 23.395 35.2584 23.7437 34.4952C23.8555 34.2453 23.5792 34.0216 23.3687 34.2058Z" fill="#2D9CDB"/>
<path d="M20.4148 36.2386C19.974 36.2781 19.6122 36.2649 19.2043 36.0807C18.9609 35.9689 18.7438 36.3242 18.9872 36.4492C19.474 36.686 19.9411 36.7978 20.4609 36.6136C20.6516 36.5413 20.6385 36.2189 20.4148 36.2386Z" fill="#2D9CDB"/>
<path d="M24.7108 37.6202C24.5332 37.6662 24.3555 37.6926 24.1713 37.7057C23.974 37.7189 23.8424 37.6202 23.7042 37.4886C23.5069 37.311 23.1845 37.5412 23.3292 37.7781C23.6779 38.357 24.3621 38.3307 24.8753 38.0018C25.0792 37.8768 24.9476 37.561 24.7108 37.6202Z" fill="#2D9CDB"/>
<path d="M16.7965 37.8768C16.5267 37.8636 16.2636 37.8768 15.9938 37.8702C15.6846 37.857 15.3689 37.686 15.1057 37.5478C14.8426 37.4097 14.6123 37.7978 14.8754 37.9491C15.5267 38.3241 16.1188 38.4557 16.8491 38.2649C17.0728 38.2057 17.0136 37.8833 16.7965 37.8768Z" fill="#2D9CDB"/>
<path d="M20.2767 39.8438C20.0596 39.8833 19.8227 39.9425 19.599 39.9096C19.3622 39.8767 19.178 39.7188 19.0069 39.5609C18.803 39.3702 18.507 39.6662 18.7043 39.8636C19.1846 40.3701 19.803 40.5675 20.4411 40.2188C20.6582 40.107 20.5003 39.8044 20.2767 39.8438Z" fill="#2D9CDB"/>
<path d="M13.0202 40.3372C12.461 40.2846 11.915 40.2517 11.6584 39.6859C11.5532 39.4557 11.1453 39.6267 11.2439 39.8636C11.5729 40.6399 12.2439 40.7978 13.0268 40.7451C13.2768 40.7188 13.2768 40.3636 13.0202 40.3372Z" fill="#2D9CDB"/>
<path d="M17.0991 42.0609C16.6452 41.9622 15.8754 42.0017 15.5926 41.5741C15.4347 41.3372 15.0597 41.5477 15.2044 41.7977C15.5794 42.4425 16.3886 42.4293 17.0399 42.4688C17.2767 42.4819 17.3294 42.1069 17.0991 42.0609Z" fill="#2D9CDB"/>
<path d="M25.6253 39.9557C25.3358 40.0675 24.849 40.2188 24.5924 39.9688C24.3884 39.7715 24.0858 40.0741 24.2832 40.278C24.6911 40.6925 25.3226 40.5609 25.7634 40.278C25.9279 40.1728 25.8226 39.8767 25.6253 39.9557Z" fill="#2D9CDB"/>
<path d="M27.1449 32.4098C26.8357 32.5808 26.52 32.7255 26.1647 32.7453C25.8752 32.765 25.8687 33.2058 26.1647 33.1992C26.3884 33.1926 26.6186 33.1663 26.8226 33.0742C27.02 32.9887 27.191 32.8242 27.3555 32.6861C27.5199 32.5545 27.316 32.3177 27.1449 32.4098Z" fill="#2D9CDB"/>
<path d="M8.13874 25.2323C7.77033 25.1007 6.98087 24.9165 6.88219 24.4625C6.83614 24.2454 6.46114 24.2915 6.48746 24.5152C6.57298 25.2323 7.47428 25.5546 8.08611 25.6138C8.31637 25.6336 8.32953 25.298 8.13874 25.2323Z" fill="#2D9CDB"/>
<path d="M28.7567 24.7915C28.6581 24.8375 28.5462 24.8968 28.4344 24.9033C28.2831 24.9165 28.1252 24.877 27.9739 24.8968C27.6318 24.9362 27.612 25.4362 27.9739 25.4428C28.1778 25.4494 28.3554 25.5283 28.566 25.4954C28.7699 25.4625 28.9212 25.331 29.0462 25.1796C29.237 24.9625 29.0067 24.6665 28.7567 24.7915Z" fill="#2D9CDB"/>
<path d="M18.5398 6.03527C18.1254 6.17343 17.5004 6.28526 17.178 5.89053C17.0333 5.71948 16.7701 5.93658 16.8754 6.12079C17.178 6.65367 18.4675 7.0813 18.8161 6.39711C18.9082 6.2129 18.7635 5.9629 18.5398 6.03527Z" fill="#2D9CDB"/>
<path d="M16.2504 4.00899C15.757 4.20636 15.3359 4.37741 14.7899 4.29188C14.6057 4.26557 14.4741 4.5024 14.6583 4.60766C15.2307 4.94976 15.9741 4.77214 16.4543 4.36425C16.6122 4.23267 16.4478 3.93005 16.2504 4.00899Z" fill="#2D9CDB"/>
<path d="M20.0793 4.36425C20.0267 4.45635 19.7306 4.39715 19.6451 4.39057C19.4543 4.36425 19.2635 4.31162 19.0727 4.26557C18.8096 4.20636 18.7109 4.58135 18.9609 4.66688C19.3161 4.78529 20.474 5.21292 20.4477 4.46293C20.4411 4.27215 20.1845 4.1932 20.0793 4.36425Z" fill="#2D9CDB"/>
<path d="M12.6518 5.71291C12.2044 5.80501 11.7636 5.67344 11.3492 5.50897C11.1452 5.42344 10.9939 5.7787 11.1979 5.8708C11.711 6.09448 12.2571 6.31158 12.7702 5.9958C12.9215 5.89712 12.8163 5.67343 12.6518 5.71291Z" fill="#2D9CDB"/>
<path d="M12.9347 3.04847C12.5794 3.09452 12.2637 3.05505 11.915 2.96953C11.6847 2.91032 11.5926 3.25241 11.8163 3.32478C12.211 3.45635 12.5795 3.57478 12.9808 3.40373C13.1518 3.33136 13.1584 3.02215 12.9347 3.04847Z" fill="#2D9CDB"/>
<path d="M18.8096 1.93008C18.428 2.06165 18.0135 2.05507 17.6188 2.06823C17.3886 2.07481 17.3886 2.41033 17.6188 2.42349C18.0991 2.4498 18.507 2.47612 18.928 2.21297C19.0727 2.12087 18.9806 1.87087 18.8096 1.93008Z" fill="#2D9CDB"/>
<path d="M23.7042 2.80506C23.3885 2.76559 23.0398 2.85111 22.7174 2.85768C22.4477 2.86426 22.4477 3.26557 22.7174 3.27215C23.0727 3.28531 23.474 3.3182 23.7963 3.14058C23.9674 3.04189 23.8687 2.82479 23.7042 2.80506Z" fill="#2D9CDB"/>
<path d="M24.9345 5.10107C24.5266 5.13396 24.1582 5.16028 23.7569 5.07476C23.4937 5.02213 23.3753 5.43001 23.645 5.48264C24.0924 5.57475 24.5529 5.63396 24.9805 5.44975C25.1516 5.39054 25.1582 5.08133 24.9345 5.10107Z" fill="#2D9CDB"/>
<path d="M28.2239 0.859722C28.239 0.859722 28.239 0.844574 28.2239 0.844574V0.859722Z" fill="#FBAD18"/>
<path d="M14.7965 16.1732C14.882 15.8772 14.9149 15.5482 14.8689 15.1996C14.7176 14.0614 13.6518 13.1141 12.5005 13.1009C10.7571 13.0878 9.44135 15.114 10.2374 16.6666C11.2834 18.7192 14.2373 18.0679 14.7965 16.1732Z" fill="#6F0600"/>
<path d="M11.1584 13.9101C10.0532 14.2259 10.54 15.9364 11.6453 15.6206C12.7439 15.3048 12.2637 13.5943 11.1584 13.9101Z" fill="white"/>
<path d="M27.487 14.4562C27.5726 14.1601 27.6055 13.8312 27.5594 13.4825C27.4081 12.3443 26.3423 11.397 25.191 11.3838C23.4476 11.3707 22.1319 13.397 22.9279 14.9496C23.9805 17.0087 26.9278 16.3509 27.487 14.4562Z" fill="#6F0600"/>
<path d="M23.849 12.193C22.7437 12.5088 23.2306 14.2193 24.3358 13.9035C25.4411 13.5943 24.9542 11.8773 23.849 12.193Z" fill="white"/>
</svg>
