<svg width="41" height="49" viewBox="0 0 41 49" fill="none" xmlns="http://www.w3.org/2000/svg">
<path d="M20.1541 48.1171C27.4451 48.1171 33.3556 46.9236 33.3556 45.4514C33.3556 43.9792 27.4451 42.7857 20.1541 42.7857C12.8631 42.7857 6.95259 43.9792 6.95259 45.4514C6.95259 46.9236 12.8631 48.1171 20.1541 48.1171Z" fill="#ABD2E5"/>
<path d="M8.10772 5.57396C7.68883 5.40259 7.20647 5.58666 6.78123 5.86592C7.02876 5.33278 7.26994 4.80598 7.36514 4.23477C7.43496 3.82222 6.89548 3.34621 6.56544 3.77145C5.09931 5.65012 4.08381 8.22695 4.86447 10.5753C5.04853 11.1338 5.84189 11.0259 5.87363 10.4357C5.89901 9.92792 5.91806 9.43286 5.95614 8.94415C6.16559 8.3412 6.45119 7.80806 6.88913 7.33839C7.30802 6.89411 7.82847 6.61485 8.27909 6.22134C8.52028 6.00555 8.35525 5.6755 8.10772 5.57396Z" fill="#6B864D"/>
<path d="M27.5355 1.96894C27.9544 1.79757 28.4368 1.98163 28.862 2.26089C28.6145 1.72775 28.3733 1.20096 28.2781 0.629743C28.2083 0.217196 28.7478 -0.258819 29.0778 0.166422C30.5439 2.0451 31.5594 4.62193 30.7788 6.97027C30.5947 7.52879 29.8013 7.4209 29.7696 6.83064C29.7442 6.32289 29.7252 5.82783 29.6871 5.33913C29.4777 4.73617 29.192 4.20303 28.7541 3.73336C28.3352 3.28908 27.8148 3.00982 27.3641 2.61631C27.123 2.40052 27.288 2.07049 27.5355 1.96894Z" fill="#6B864D"/>
<path d="M2.85886 21.4665C0.567641 23.3452 -2.04727 38.4635 2.49074 37.2766C2.4717 38.5206 2.65577 39.6059 3.6078 40.4881C4.59791 41.4021 5.09931 41.1228 6.17828 40.5325C6.38138 41.5036 7.04145 42.0558 8.07599 42.0812C10.564 42.151 12.2776 38.7935 12.5759 36.7244C12.9187 34.3697 12.3665 31.9262 12.0491 29.5969C11.6429 26.6012 11.2558 23.2437 9.45961 20.6922C8.09503 18.7501 5.17547 17.5378 2.85252 18.3756" fill="#F2CACA"/>
<path d="M38.1411 21.0984C40.4324 22.9771 43.0473 38.0954 38.5093 36.9085C38.5283 38.1525 38.3442 39.2378 37.3922 40.12C36.4021 41.034 35.9007 40.7547 34.8217 40.1644C34.6186 41.1355 33.9585 41.6877 32.924 41.7131C30.436 41.7829 28.7224 38.4254 28.4241 36.3563C28.0813 34.0016 28.6335 31.5581 28.9509 29.2288C29.3571 26.233 29.7442 22.8755 31.5404 20.3241C32.905 18.382 35.8245 17.1697 38.1475 18.0075" fill="#F2CACA"/>
<path d="M5.50551 7.56687C6.03864 7.28126 10.0626 9.55345 18.3008 8.37293C26.5391 7.19876 29.1857 4.39978 30.2139 4.32997C31.2421 4.2538 38.522 10.8736 38.376 22.5709C38.23 34.2682 31.9783 43.1665 21.8995 45.445C11.8207 47.7236 4.31865 36.0326 2.33842 27.2803C0.358197 18.5216 3.44912 8.66488 5.50551 7.56687Z" fill="#5835B0"/>
<path d="M10.583 11.9018C4.45828 12.9935 2.05282 22.5646 8.52663 25.0652C15.0004 27.5659 19.8558 23.3706 18.9736 18.2994C18.085 13.2283 15.9525 10.9498 10.583 11.9018Z" fill="#FFEA76"/>
<path d="M27.0531 9.47729C20.9284 10.569 18.523 20.14 24.9968 22.6407C31.4706 25.1414 36.3259 20.9461 35.4437 15.8749C34.5615 10.8038 32.4226 8.51892 27.0531 9.47729Z" fill="#FFEA76"/>
<path d="M19.1132 23.0088C19.5257 21.4729 21.2458 21.3904 22.2739 22.1266C23.3021 22.8628 22.5659 25.5857 21.7599 26.0236C20.9538 26.4679 18.8212 24.1132 19.1132 23.0088Z" fill="#F2CACA"/>
<path d="M2.50978 32.4784C2.33207 32.3768 2.14801 32.3451 1.95761 32.288C1.7799 32.2308 1.51332 32.1356 1.47524 31.9389C1.43716 31.7548 1.15155 31.7993 1.15155 31.9833C1.15155 32.2689 1.361 32.4911 1.59583 32.6307C1.84336 32.7767 2.17975 32.9163 2.4717 32.8274C2.61768 32.783 2.66211 32.5609 2.50978 32.4784Z" fill="#F9E3E3"/>
<path d="M3.51892 34.5094C3.34121 34.5284 3.16984 34.5411 3.01752 34.4396C2.87154 34.3443 2.75095 34.1793 2.62401 34.0524C2.47804 33.9064 2.21146 34.0968 2.33205 34.2809C2.6494 34.7442 3.01752 35.1885 3.62047 34.8711C3.77914 34.7823 3.71567 34.4903 3.51892 34.5094Z" fill="#F9E3E3"/>
<path d="M4.89621 36.6546C4.59791 36.5594 4.28691 36.5277 4.12824 36.223C4.03304 36.0326 3.703 36.1659 3.77916 36.369C3.95687 36.8323 4.4075 37.0862 4.89621 37.01C5.08662 36.9847 5.04853 36.7117 4.89621 36.6546Z" fill="#F9E3E3"/>
<path d="M1.78624 35.8485C1.61487 35.6772 1.49428 35.4931 1.36735 35.29C1.27849 35.1504 1.03096 35.2392 1.08808 35.4043C1.18329 35.6899 1.32292 35.9438 1.60218 36.0834C1.7545 36.1595 1.91318 35.9691 1.78624 35.8485Z" fill="#F9E3E3"/>
<path d="M5.18181 38.3683C5.02314 38.3302 4.5852 38.216 4.57886 38.0129C4.57251 37.7844 4.24247 37.7907 4.22978 38.0129C4.19805 38.4635 4.75657 38.7237 5.14373 38.692C5.3151 38.6793 5.37222 38.419 5.18181 38.3683Z" fill="#F9E3E3"/>
<path d="M7.37785 39.2632C7.16205 39.3076 6.89549 39.2886 6.68604 39.1997C6.53372 39.1362 6.34331 39.3203 6.49564 39.4472C6.78759 39.7011 7.15571 39.7138 7.49209 39.5424C7.65711 39.4599 7.53652 39.2314 7.37785 39.2632Z" fill="#F9E3E3"/>
<path d="M5.17547 39.7963C4.90256 39.8471 4.54713 39.8598 4.35672 39.6376C4.36307 39.5805 4.33134 39.5234 4.25518 39.517H4.2044C4.14093 39.517 4.07111 39.5742 4.07746 39.644C4.13458 40.2089 4.84543 40.2089 5.24529 40.0565C5.41031 39.9931 5.34684 39.7646 5.17547 39.7963Z" fill="#F9E3E3"/>
<path d="M8.45046 40.8118C8.26006 40.7991 8.076 40.7801 7.93637 40.6404C7.83482 40.5452 7.73962 40.5008 7.60633 40.5262C7.49209 40.5452 7.4667 40.7293 7.5746 40.7801C7.72692 40.8436 7.80309 41.0149 7.96176 41.0911C8.12043 41.1672 8.32353 41.1165 8.4949 41.0911C8.65357 41.0657 8.59644 40.8245 8.45046 40.8118Z" fill="#F9E3E3"/>
<path d="M33.546 39.5805C33.4064 39.7328 33.2921 39.9042 33.1525 40.0565C32.9811 40.2469 32.7717 40.2533 32.5432 40.2787C32.5241 40.2787 32.5114 40.2787 32.4924 40.285C32.4861 40.285 32.4734 40.285 32.467 40.2914C32.467 40.2914 32.467 40.2914 32.4734 40.2977C32.3528 40.3548 32.2703 40.5579 32.467 40.6024C33.1081 40.742 33.6348 40.3612 33.8443 39.7646C33.9078 39.5805 33.6666 39.4472 33.546 39.5805Z" fill="#F9E3E3"/>
<path d="M34.625 38.3937C34.4854 38.4825 34.3648 38.5904 34.2251 38.6856C34.0665 38.7872 33.9268 38.7681 33.7491 38.7681C33.6158 38.7681 33.5651 38.9522 33.6793 39.0156C34.1172 39.2568 34.5742 38.9585 34.8408 38.6094C34.9423 38.4825 34.7519 38.3048 34.625 38.3937Z" fill="#F9E3E3"/>
<path d="M36.6179 38.9205C36.529 38.9903 36.1546 39.333 36.0594 39.2378C35.9642 39.1426 35.7611 39.2378 35.8182 39.3774C36.0213 39.8661 36.6496 39.4092 36.821 39.1172C36.8845 39.003 36.7385 38.8252 36.6179 38.9205Z" fill="#F9E3E3"/>
<path d="M37.0368 36.8831C36.8337 37.1433 36.7131 37.4416 36.4085 37.6066C36.2815 37.6765 36.3704 37.8922 36.5037 37.8415C36.8781 37.6955 37.1383 37.3972 37.2653 37.0227C37.3034 36.8958 37.1193 36.7752 37.0368 36.8831Z" fill="#F9E3E3"/>
<path d="M37.3097 34.6617C37.0431 34.8711 36.9225 35.1314 36.5417 35.125C36.3196 35.1187 36.3323 35.436 36.5417 35.4614C36.9987 35.5122 37.3668 35.2646 37.5699 34.8584C37.6588 34.6871 37.4557 34.5474 37.3097 34.6617Z" fill="#F9E3E3"/>
<path d="M39.2392 34.7506C38.9789 34.9727 38.8203 35.2456 38.4585 35.2773C38.2554 35.2964 38.249 35.601 38.4585 35.5947C38.9472 35.582 39.2265 35.3218 39.4613 34.9219C39.5438 34.7759 39.3597 34.649 39.2392 34.7506Z" fill="#F9E3E3"/>
<path d="M39.5184 32.2118C39.2836 32.599 39.0868 32.9988 38.8393 33.3796C38.7314 33.5446 38.9916 33.697 39.0995 33.5319C39.3534 33.1511 39.639 32.7576 39.7596 32.3133C39.804 32.161 39.5946 32.0785 39.5184 32.2118Z" fill="#F9E3E3"/>
<path d="M38.065 31.8818C37.9 32.015 37.7413 32.1547 37.5699 32.2816C37.4049 32.4022 37.5572 32.6815 37.7349 32.5609C37.9507 32.4149 38.1348 32.2626 38.2871 32.0531C38.3887 31.9135 38.1792 31.7929 38.065 31.8818Z" fill="#F9E3E3"/>
<path d="M39.3724 29.8127C39.1757 30.0475 38.998 30.1808 38.706 30.276C38.5029 30.3458 38.5854 30.6568 38.7949 30.5997C39.1693 30.4981 39.4994 30.3522 39.639 29.965C39.6898 29.819 39.474 29.6921 39.3724 29.8127Z" fill="#F9E3E3"/>
<path d="M9.95468 28.8479C9.51674 29.0828 9.08515 29.2541 8.58375 29.2668C8.2664 29.2732 7.61902 29.1907 7.46035 28.8606C7.35245 28.6322 6.99703 28.7972 7.0605 29.0257C7.19378 29.4953 7.70788 29.6603 8.13946 29.7492C8.90744 29.9079 9.64368 29.7175 10.2212 29.197C10.418 29.0257 10.1705 28.7337 9.95468 28.8479Z" fill="#F9E3E3"/>
<path d="M15.5907 29.0257C15.0575 29.2351 14.6514 29.3303 14.0801 29.2224C13.9659 29.2034 13.3883 29.1463 13.3566 29.0574C13.2804 28.8479 12.9123 28.8606 12.944 29.1145C12.9948 29.5461 13.5597 29.6223 13.9024 29.7048C14.5879 29.8698 15.2733 29.946 15.8255 29.4319C15.9969 29.2732 15.8192 28.9368 15.5907 29.0257Z" fill="#F9E3E3"/>
<path d="M22.4517 28.2513C22.0137 28.5814 21.1506 28.8543 20.6682 28.4418C20.4905 28.2894 20.1731 28.4862 20.3191 28.7083C20.5984 29.1209 21.0807 29.1716 21.5441 29.197C22.1153 29.2288 22.439 29.0003 22.7754 28.5687C22.915 28.3846 22.6357 28.1117 22.4517 28.2513Z" fill="#F9E3E3"/>
<path d="M28.6843 27.7055C28.3606 27.8388 28.0369 28.0102 27.6878 28.0609C27.618 28.0673 27.0405 28.0609 27.0214 27.934C26.996 27.7436 26.6914 27.6611 26.6533 27.8832C26.5898 28.264 26.958 28.4227 27.269 28.5116C27.8529 28.6829 28.4685 28.4798 28.9128 28.099C29.0905 27.953 28.9065 27.6167 28.6843 27.7055Z" fill="#F9E3E3"/>
<path d="M34.5869 26.9248C34.3774 27.0645 34.1743 27.2422 33.9332 27.3437C33.6158 27.4707 33.3175 27.312 33.0509 27.1533C32.7907 27.001 32.5876 27.3818 32.8225 27.5468C33.5524 28.0609 34.3711 28.0165 34.9042 27.2485C35.0375 27.0518 34.7773 26.7979 34.5869 26.9248Z" fill="#F9E3E3"/>
<path d="M18.5991 31.539C18.3516 31.5708 18.104 31.6025 17.8502 31.5961C17.5392 31.5835 17.2536 31.3994 16.9933 31.2407C16.8156 31.1328 16.6379 31.374 16.7776 31.52C17.2663 32.0404 18.0533 32.3387 18.707 31.9516C18.8911 31.85 18.8276 31.5136 18.5991 31.539Z" fill="#F9E3E3"/>
<path d="M11.4018 32.2689C10.875 32.3832 9.94832 32.5736 9.55482 32.0404C9.45961 31.9135 9.22478 31.9389 9.23113 32.1293C9.25017 32.4657 9.60559 32.6497 9.87851 32.7767C10.4243 33.0305 11.0654 33.0052 11.5795 32.7005C11.8143 32.5609 11.6556 32.2181 11.4018 32.2689Z" fill="#F9E3E3"/>
<path d="M24.8508 31.082C24.343 31.1011 23.721 31.2153 23.2641 30.9234C23.0927 30.8155 22.8642 31.0376 22.9784 31.209C23.3719 31.7739 24.4128 31.7739 24.9714 31.5327C25.1935 31.4311 25.0793 31.0694 24.8508 31.082Z" fill="#F9E3E3"/>
<path d="M31.7372 30.1173C31.3563 30.4791 30.6011 30.8726 30.1504 30.4347C29.9791 30.2697 29.6681 30.4918 29.814 30.6949C30.4107 31.4946 31.6737 31.2407 32.1243 30.4156C32.2512 30.1681 31.9403 29.9269 31.7372 30.1173Z" fill="#F9E3E3"/>
<path d="M15.7049 34.3126C14.975 34.6617 14.2769 34.6871 13.6168 34.1857C13.4518 34.0587 13.2487 34.3317 13.401 34.4649C14.1246 35.1123 15.1083 35.2646 15.908 34.6553C16.1048 34.503 15.9398 34.1984 15.7049 34.3126Z" fill="#F9E3E3"/>
<path d="M21.6837 34.3317C21.4425 34.357 21.195 34.4015 20.9538 34.4269C20.5984 34.4586 20.3191 34.2618 20.0652 34.046C19.8621 33.8683 19.5765 34.1476 19.7669 34.3443C20.3382 34.9283 20.9728 35.0615 21.7408 34.7823C21.9693 34.6934 21.9566 34.2999 21.6837 34.3317Z" fill="#F9E3E3"/>
<path d="M28.5447 33.0305C28.3162 33.2336 28.0496 33.3923 27.745 33.4177C27.4657 33.4431 27.2182 33.2527 26.9643 33.1765C26.7422 33.113 26.5899 33.4621 26.8056 33.5573C27.1928 33.7223 27.4657 33.9889 27.9164 33.9255C28.3352 33.862 28.6082 33.5954 28.8303 33.2527C28.9509 33.0686 28.6907 32.8973 28.5447 33.0305Z" fill="#F9E3E3"/>
<path d="M18.231 38.0826C18.0533 38.2921 17.8184 38.3746 17.5392 38.3365C17.3297 38.3048 16.968 38.0128 16.9045 37.8034C16.8156 37.5305 16.4094 37.6384 16.4729 37.924C16.676 38.7935 18.3198 39.4028 18.5864 38.2857C18.6245 38.0953 18.3706 37.9176 18.231 38.0826Z" fill="#F9E3E3"/>
<path d="M12.2713 37.3908C11.8397 37.4416 11.1987 37.5813 10.9638 37.1116C10.8686 36.9275 10.5449 37.0608 10.6211 37.2576C10.9067 37.9557 11.7001 37.9811 12.3221 37.7463C12.4934 37.6765 12.4871 37.3718 12.2713 37.3908Z" fill="#F9E3E3"/>
<path d="M25.898 36.7942C25.3204 36.9212 24.6477 37.3464 24.1082 36.9085C23.9051 36.7435 23.6131 37.0164 23.8162 37.2004C24.47 37.7907 25.3649 37.5622 26.0503 37.1497C26.2471 37.0354 26.1138 36.7498 25.898 36.7942Z" fill="#F9E3E3"/>
<path d="M31.3373 35.8105C30.893 35.9374 30.5503 36.1215 30.0743 36.0961C29.8204 36.0834 29.7633 36.4959 30.0108 36.5404C30.563 36.6356 31.1278 36.5848 31.5531 36.1849C31.7244 36.0326 31.5531 35.747 31.3373 35.8105Z" fill="#F9E3E3"/>
<path d="M21.817 40.6404C21.7218 40.7928 21.6266 40.9134 21.4425 40.9578C21.1569 41.0213 20.8205 40.888 20.5603 40.7928C20.3762 40.7293 20.2556 41.0213 20.427 41.1101C21.0173 41.3957 21.9947 41.694 22.1724 40.7928C22.2105 40.577 21.9312 40.4437 21.817 40.6404Z" fill="#F9E3E3"/>
<path d="M15.286 40.6595C14.7275 40.6785 14.1119 40.6785 13.6612 40.3041C13.4645 40.1454 13.1852 40.4056 13.3756 40.5897C13.9405 41.1228 14.6006 41.0593 15.3241 40.9641C15.5018 40.9324 15.4574 40.6531 15.286 40.6595Z" fill="#F9E3E3"/>
<path d="M27.745 39.8725C27.599 39.9804 27.453 40.101 27.288 40.1835C27.0976 40.285 26.9072 40.2025 26.7104 40.2533C26.5771 40.285 26.52 40.4818 26.6279 40.577C26.8564 40.7801 27.1737 40.8372 27.4594 40.742C27.7323 40.6531 27.9036 40.4056 28.0686 40.1898C28.2083 40.0058 27.929 39.7328 27.745 39.8725Z" fill="#F9E3E3"/>
<path d="M19.2275 11.3496C19.0878 11.4385 18.9609 11.54 18.7895 11.5527C18.5991 11.5654 18.4024 11.5083 18.212 11.4702C17.939 11.4131 17.8248 11.8066 18.0977 11.8891C18.6055 12.0414 19.2846 12.2128 19.5385 11.5908C19.6083 11.4194 19.3734 11.2544 19.2275 11.3496Z" fill="#F9E3E3"/>
<path d="M17.2282 10.0549C16.5745 10.2643 15.9842 10.4103 15.3241 10.1374C15.1655 10.0739 15.0576 10.3405 15.2099 10.4166C15.9207 10.7784 16.6697 10.7657 17.3551 10.3532C17.5075 10.258 17.4122 9.99774 17.2282 10.0549Z" fill="#F9E3E3"/>
<path d="M21.7027 9.92791C21.4742 10.1501 21.2648 10.2135 20.9538 10.2389C20.7126 10.2579 20.7063 10.607 20.9538 10.6197C21.3981 10.6324 21.8424 10.5816 22.0201 10.112C22.0835 9.92791 21.8297 9.80732 21.7027 9.92791Z" fill="#F9E3E3"/>
<path d="M10.9004 10.2643C10.3799 10.4611 9.88486 10.5309 9.32634 10.5563C9.11054 10.569 9.11054 10.8926 9.32634 10.8926C9.9039 10.899 10.5386 10.9307 11.0336 10.5753C11.186 10.4738 11.0971 10.1945 10.9004 10.2643Z" fill="#F9E3E3"/>
<path d="M25.7647 7.89057C25.3839 8.19522 24.9714 8.37294 24.4763 8.3412C24.2732 8.32851 24.2288 8.65854 24.4255 8.69028C24.7238 8.7474 25.0094 8.75374 25.3014 8.67124C25.6124 8.58238 25.8219 8.33485 26.0123 8.08733C26.1329 7.92865 25.898 7.78902 25.7647 7.89057Z" fill="#F9E3E3"/>
<path d="M29.9917 7.63034C29.6681 7.89057 29.3571 7.82075 29.0016 7.66208C28.7478 7.54783 28.5256 7.89691 28.7795 8.04289C29.3317 8.36023 29.9219 8.49352 30.3281 7.88422C30.4741 7.67477 30.1695 7.49706 29.9917 7.63034Z" fill="#F9E3E3"/>
<path d="M5.82284 11.9081C5.76572 11.997 5.5182 12.0033 5.42934 12.0097C5.22624 12.0224 4.99775 11.9589 4.80734 11.9018C4.62328 11.8447 4.53443 12.0985 4.68041 12.2001C4.96602 12.3842 5.21355 12.454 5.55628 12.4032C5.77207 12.3715 6.03864 12.2636 6.07672 12.0224C6.10845 11.8637 5.9117 11.7622 5.82284 11.9081Z" fill="#F9E3E3"/>
<path d="M7.18108 9.17264C6.95259 9.31228 6.67333 9.38209 6.41945 9.45825C6.2227 9.51538 6.27348 9.78194 6.46388 9.79463C6.81931 9.82637 7.1303 9.6804 7.39687 9.45191C7.55554 9.32497 7.35244 9.06475 7.18108 9.17264Z" fill="#F9E3E3"/>
<path d="M6.53371 26.2013C6.30522 26.233 6.08308 26.2711 5.86094 26.3092C5.70227 26.3409 5.5436 26.3663 5.38493 26.379C5.32781 26.3854 5.26434 26.3854 5.20087 26.3727C5.14374 26.36 5.17548 26.3854 5.16913 26.3473C5.13105 26.1632 4.85178 26.1696 4.80736 26.3473C4.6233 27.1533 6.25444 26.7091 6.58448 26.5821C6.77489 26.506 6.76854 26.1696 6.53371 26.2013Z" fill="#F9E3E3"/>
<path d="M35.2025 24.7669C34.9233 24.9637 34.4028 25.2048 34.0982 24.9383C33.9141 24.7733 33.6856 25.0144 33.838 25.1985C34.2695 25.7443 35.0819 25.4968 35.4501 25.0081C35.558 24.8685 35.3485 24.6654 35.2025 24.7669Z" fill="#F9E3E3"/>
<path d="M14.0992 19.0357C14.1817 18.7501 14.2134 18.4327 14.169 18.0963C14.023 16.9983 12.9948 16.0844 11.8841 16.0717C10.2022 16.059 8.93282 18.0138 9.70079 19.5117C10.7163 21.4919 13.5597 20.8636 14.0992 19.0357Z" fill="#506739"/>
<path d="M10.5894 16.8524C9.52308 17.157 9.99274 18.8072 11.059 18.5025C12.1253 18.1979 11.6556 16.5477 10.5894 16.8524Z" fill="white"/>
<path d="M30.6518 16.6112C30.7343 16.3256 30.7661 16.0082 30.7216 15.6718C30.5757 14.5738 29.5475 13.6599 28.4368 13.6472C26.7548 13.6345 25.4855 15.5893 26.2534 17.0872C27.2626 19.0674 30.1123 18.4391 30.6518 16.6112Z" fill="#506739"/>
<path d="M27.142 14.4215C26.0757 14.7262 26.5454 16.3763 27.6117 16.0717C28.6716 15.7734 28.2083 14.1232 27.142 14.4215Z" fill="white"/>
</svg>
