<svg width="42" height="46" viewBox="0 0 42 46" fill="none" xmlns="http://www.w3.org/2000/svg">
<path d="M21.2237 45.5863C13.9446 45.5863 8.04381 44.3948 8.04381 42.925C8.04381 41.4552 13.9446 40.2637 21.2237 40.2637C28.5027 40.2637 34.4036 41.4552 34.4036 42.925C34.4036 44.3948 28.5027 45.5863 21.2237 45.5863Z" fill="#ABD2E5"/>
<path d="M34.0614 7.9096C35.9307 7.99831 35.221 5.76153 35.3667 4.70334C35.5632 3.28397 36.6657 3.65148 37.1663 4.697C37.1726 3.79722 37.0902 3.13189 38.0724 2.8214C39.194 2.46656 40.1508 3.19526 40.2015 4.32949C40.3219 7.30763 37.9457 10.4822 34.7711 9.55075C34.6507 9.37333 34.6444 9.18324 34.7584 8.96779" fill="#8EBEE6"/>
<path d="M12.7455 5.17858C10.8762 5.26729 11.5859 3.03052 11.4402 1.97232C11.2437 0.55295 10.1412 0.920466 9.6406 1.96599C9.63426 1.06621 9.71663 0.400874 8.73448 0.0903864C7.61292 -0.264457 6.65612 0.464239 6.60543 1.59847C6.48503 4.57662 8.86121 7.7512 12.0358 6.81973C12.1562 6.64231 12.1625 6.45222 12.0485 6.23678" fill="#8EBEE6"/>
<path d="M37.0903 18.8274C37.838 18.4979 39.1053 20.158 39.5235 20.6459C40.664 21.9766 41.1773 23.4467 41.6272 25.1258C42.0074 26.5515 42.1848 28.3131 41.7286 29.7451C41.2723 31.1772 40.7337 31.5067 39.4411 31.0948C39.9543 32.0009 39.6692 33.4583 39.0165 34.2314C37.5972 35.9232 34.8028 35.4163 33.3264 34.168C30.3229 31.6081 30.646 27.0585 32.0844 23.7572C32.8131 22.0843 33.282 20.4495 34.5113 19.0745C35.259 18.2381 35.4364 18.4725 36.3996 18.2191" fill="#8EBEE6"/>
<path d="M6.16187 15.3296C5.46485 14.8987 3.98212 16.3751 3.50054 16.806C2.18889 17.9719 1.47921 19.3596 0.807537 20.9564C0.237253 22.3124 -0.180955 24.0423 0.0788412 25.5187C0.338637 27.0014 0.820213 27.3943 2.15721 27.1662C1.52356 27.9963 1.61227 29.479 2.15087 30.3344C3.32312 32.1973 6.16821 32.0833 7.79668 31.0441C11.1233 28.9151 11.4212 24.3655 10.439 20.8994C9.94475 19.1442 9.70395 17.4587 8.67111 15.9316C8.04379 15.0001 7.83469 15.2092 6.9159 14.8227" fill="#8EBEE6"/>
<path d="M24.3539 3.81624C38.5603 5.50808 39.0609 11.0969 38.0787 22.6166C37.0966 34.1363 33.301 42.7096 21.6292 43.2355C9.95108 43.7678 5.47752 29.8909 5.55356 19.2012C5.6296 8.51158 8.43033 1.9153 24.3539 3.81624Z" fill="#FFD203"/>
<path d="M30.1962 8.47356C32.2175 8.61296 34.2072 9.53809 35.5315 11.1222C37.5021 13.4794 37.8443 17.2369 35.5378 19.499C35.1703 19.8602 34.7457 20.1707 34.2895 20.4178C31.4318 21.9703 27.6426 21.6281 25.108 19.5878C23.0233 17.9149 22.51 14.8417 23.5302 12.4402C24.6391 9.81056 27.3828 8.28347 30.1962 8.47356Z" fill="#FFF8A1"/>
<path d="M14.8048 7.10487C16.8262 7.24427 18.8158 8.1694 20.1402 9.75352C22.1108 12.1107 22.453 15.8682 20.1465 18.1304C19.779 18.4915 19.3544 18.802 18.8982 19.0491C16.0405 20.6016 12.2512 20.2594 9.71664 18.2191C7.63194 16.5462 7.11868 13.473 8.13885 11.0715C9.24774 8.4482 11.9914 6.91477 14.8048 7.10487Z" fill="#FFF8A1"/>
<path d="M23.7456 19.8095C23.1056 19.0555 21.4708 19.0492 20.4887 19.5054C19.5065 19.9616 20.8689 23.1425 21.6989 23.5227C22.5353 23.9029 24.582 20.798 23.7456 19.8095Z" fill="#F99F1E"/>
<path d="M39.3714 25.8038C39.6122 25.5947 39.8846 25.4173 39.986 25.1005C40.0874 24.7773 39.9734 24.3528 39.7769 24.0866C39.6312 23.8839 39.967 23.6304 40.1254 23.8205C40.7717 24.5999 40.55 25.7215 39.6185 26.127C39.4221 26.2157 39.1813 25.9749 39.3714 25.8038Z" fill="#B6E4FA"/>
<path d="M40.0621 28.0153C40.1951 27.8886 40.3789 27.7808 40.4739 27.6288C40.6197 27.407 40.3852 26.9761 40.3029 26.767C40.2141 26.5516 40.5817 26.3995 40.6704 26.6086C40.8098 26.9191 41.0189 27.3246 40.9238 27.6731C40.8351 28.0026 40.5817 28.18 40.2902 28.3194C40.1064 28.4081 39.8973 28.1737 40.0621 28.0153Z" fill="#B6E4FA"/>
<path d="M38.592 28.5285C38.8962 28.3321 39.156 28.142 39.0165 27.7491C38.9278 27.502 39.3144 27.407 39.4094 27.6414C39.6375 28.2054 39.2954 28.7123 38.7314 28.8517C38.535 28.9024 38.4209 28.6362 38.592 28.5285Z" fill="#B6E4FA"/>
<path d="M39.8086 30.195C39.9924 30.081 40.1254 29.9669 40.2458 29.7832C40.3979 29.555 40.7654 29.7705 40.6133 29.9986C40.4359 30.2584 40.2648 30.4485 39.948 30.5182C39.7452 30.5625 39.6312 30.3027 39.8086 30.195Z" fill="#B6E4FA"/>
<path d="M37.3564 31.9566C37.6415 31.8869 37.7999 31.6081 37.838 31.3356C37.8633 31.1328 38.1738 31.1201 38.1675 31.3356C38.1548 31.8108 37.9077 32.3241 37.3627 32.229C37.217 32.2037 37.2233 31.9883 37.3564 31.9566Z" fill="#B6E4FA"/>
<path d="M37.6859 33.7561C37.971 33.5787 38.0787 33.4076 38.1231 33.0781C38.1484 32.888 38.4463 32.8057 38.4843 33.0274C38.573 33.5344 38.3449 33.9652 37.8253 34.0793C37.6225 34.13 37.5085 33.8638 37.6859 33.7561Z" fill="#B6E4FA"/>
<path d="M36.634 33.8195C36.7354 33.6864 36.8178 33.5534 36.8748 33.395C36.9889 33.0845 37.4197 33.2682 37.293 33.5724C37.198 33.7878 37.1029 33.9652 36.8875 34.0666C36.7354 34.1427 36.5136 33.9779 36.634 33.8195Z" fill="#B6E4FA"/>
<path d="M5.4522 30.2204C5.55358 30.3091 5.68031 30.3724 5.81337 30.3915C5.87674 30.3978 6.15553 30.4105 6.16821 30.3091C6.19355 30.1253 6.44068 30.195 6.45969 30.3471C6.49137 30.6386 6.16821 30.759 5.93376 30.7907C5.61693 30.835 5.31913 30.7273 5.16705 30.4358C5.07201 30.2521 5.29378 30.0873 5.4522 30.2204Z" fill="#B6E4FA"/>
<path d="M4.67913 28.839C4.74883 28.6869 4.94527 28.801 4.92626 28.9404C4.87557 29.2572 5.32546 29.3269 5.55357 29.3523C5.75634 29.3713 5.76267 29.6754 5.55357 29.6691C5.072 29.6628 4.38132 29.4537 4.67913 28.839Z" fill="#B6E4FA"/>
<path d="M3.12668 27.7998C3.26608 27.7365 3.43084 27.9076 3.29777 28.0216C2.90491 28.3765 3.39281 28.9341 3.68429 29.1749C3.82369 29.2889 3.63994 29.5234 3.4942 29.422C3.06332 29.0988 2.33462 28.1547 3.12668 27.7998Z" fill="#B6E4FA"/>
<path d="M2.00513 19.7905C2.1382 19.6638 2.35998 19.7905 2.30929 19.9679C2.30929 19.9806 2.30294 19.9933 2.30294 20.006C2.29027 20.044 2.27127 20.0757 2.24592 20.0947C1.89741 20.6333 1.91008 21.0958 2.0178 21.7358C2.04948 21.9259 1.78336 22.078 1.68198 21.8752C1.33347 21.1845 1.43485 20.3291 2.00513 19.7905Z" fill="#B6E4FA"/>
<path d="M2.72115 21.7295C2.77818 21.495 3.12669 21.5964 3.076 21.8309C3.03798 22.002 3.0063 22.1794 3.0063 22.3568C3.0063 22.5532 3.12036 22.6673 3.24708 22.8004C3.35481 22.9144 3.25342 23.1362 3.08233 23.0792C2.49937 22.8891 2.61343 22.1984 2.72115 21.7295Z" fill="#B6E4FA"/>
<path d="M0.978618 23.0982C1.03565 22.8637 1.3905 22.9651 1.33347 23.1996C1.23842 23.6051 1.37147 23.8839 1.63761 24.1817C1.73899 24.2958 1.5996 24.5175 1.4602 24.4098C1.26377 24.2641 1.07367 24.1057 0.98496 23.8776C0.883577 23.6178 0.908916 23.358 0.978618 23.0982Z" fill="#B6E4FA"/>
<path d="M3.41182 24.5366C3.46885 24.3148 3.80469 24.4098 3.754 24.6316C3.69697 24.8851 3.65262 25.1322 3.83004 25.354C3.9631 25.5187 4.19756 25.5757 4.38765 25.6454C4.54606 25.7025 4.53339 25.9749 4.3433 25.9623C4.02647 25.9306 3.70964 25.8799 3.51321 25.6011C3.27243 25.2652 3.31044 24.9167 3.41182 24.5366Z" fill="#B6E4FA"/>
<path d="M2.25859 25.5187C2.37898 25.8482 2.48671 26.2284 2.8669 26.3361C3.03165 26.3805 2.99996 26.6339 2.82887 26.6339C2.23325 26.6403 2.04949 26.0953 1.8784 25.6264C1.78335 25.3856 2.16988 25.2779 2.25859 25.5187Z" fill="#B6E4FA"/>
<path d="M3.27242 19.9173C3.32311 19.7145 3.6336 19.7969 3.58924 20.006C3.53855 20.2404 3.52589 20.4812 3.50054 20.722C3.48153 20.8677 3.24707 20.9311 3.22173 20.76C3.17103 20.4685 3.19638 20.2024 3.27242 19.9173Z" fill="#B6E4FA"/>
<path d="M10.2742 2.5236C10.2933 2.2638 10.6988 2.2638 10.6798 2.5236C10.6544 2.89111 10.6228 3.25863 10.477 3.59446C10.4073 3.75288 10.1348 3.67684 10.1539 3.50575C10.1855 3.18259 10.2489 2.85309 10.2742 2.5236Z" fill="#B6E4FA"/>
<path d="M8.39866 1.99134C8.41133 1.75055 8.77251 1.75055 8.77251 1.99134C8.77251 2.39687 8.78518 2.77706 8.91191 3.16358C9.04497 3.56912 9.30477 3.94297 9.5012 4.32316C9.60892 4.53227 9.32378 4.69068 9.19071 4.50692C8.59508 3.70852 8.35431 2.9925 8.39866 1.99134Z" fill="#B6E4FA"/>
<path d="M37.2994 7.06686C38.1231 6.68033 38.4526 5.81857 38.5413 4.95047C38.573 4.68434 38.9912 4.67167 38.9659 4.95047C38.8835 5.92629 38.5223 7.17458 37.4388 7.40269C37.2487 7.44705 37.1029 7.15557 37.2994 7.06686Z" fill="#B6E4FA"/>
<path d="M35.9877 6.42688C36.2475 6.19876 36.3425 5.97065 36.3679 5.63482C36.3869 5.39403 36.7544 5.38769 36.7417 5.63482C36.7227 6.08471 36.615 6.54093 36.1398 6.69935C35.994 6.75004 35.8673 6.5346 35.9877 6.42688Z" fill="#B6E4FA"/>
<path d="M31.2163 25.0181C31.4888 25.2336 31.7106 25.5187 32.0021 25.6961C32.4329 25.9559 33.1236 25.7595 33.4658 25.449C33.6939 25.2399 33.9854 25.5504 33.7953 25.7785C32.9272 26.8557 31.1593 26.6402 30.6777 25.3286C30.5637 24.9928 30.9946 24.8344 31.2163 25.0181Z" fill="#FDB717"/>
<path d="M26.0014 24.9928C26.5844 25.2526 27.3321 25.7025 27.9087 25.1639C28.1115 24.9738 28.3776 25.2526 28.2128 25.468C27.6109 26.222 26.1725 26.1397 25.6085 25.392C25.4058 25.1258 25.767 24.8914 26.0014 24.9928Z" fill="#FDB717"/>
<path d="M21.0463 25.1322C21.4074 25.4427 21.813 25.5631 22.2882 25.5567C22.5797 25.5504 22.8965 25.4173 23.0676 25.1702C23.1436 25.0625 23.2387 25.0561 23.3591 25.0498C23.5365 25.0371 23.6125 25.2652 23.4985 25.3856C23.0486 25.8609 22.7444 26.1397 22.0538 26.1524C21.4772 26.165 20.8245 25.9686 20.6154 25.3856C20.514 25.1195 20.8625 24.9738 21.0463 25.1322Z" fill="#FDB717"/>
<path d="M14.9886 24.5429C15.3941 24.7203 15.7553 24.9864 16.1799 25.1322C16.7882 25.3413 17.1683 25.2019 17.6436 24.809C17.84 24.6443 18.0681 24.8851 17.9161 25.0815C17.4978 25.6201 17.162 25.8545 16.465 25.8609C15.768 25.8672 15.071 25.5504 14.6338 25.0054C14.412 24.7457 14.6781 24.4098 14.9886 24.5429Z" fill="#FDB717"/>
<path d="M9.7103 24.714C10.496 24.9421 11.2564 25.4427 11.9471 24.7013C12.1372 24.4922 12.4984 24.7647 12.3399 25.0054C11.7126 25.9559 10.1855 26.1397 9.39981 25.2526C9.19704 25.0181 9.38714 24.6189 9.7103 24.714Z" fill="#FDB717"/>
<path d="M28.498 28.1293C29.0556 28.3574 29.6892 28.5032 30.1708 28.0216C30.3482 27.8442 30.6841 28.085 30.5257 28.2941C30.2595 28.6553 29.892 28.8327 29.4675 28.9594C28.9859 29.0988 28.5677 28.9404 28.2192 28.6046C28.0354 28.4145 28.2255 28.0153 28.498 28.1293Z" fill="#FDB717"/>
<path d="M23.3528 28.2244C23.8787 28.5095 24.6707 28.725 25.0699 28.142C25.2347 27.9076 25.5705 28.104 25.4501 28.3638C25.0192 29.3016 23.6632 29.441 22.9979 28.6743C22.7951 28.4335 23.0549 28.0596 23.3528 28.2244Z" fill="#FDB717"/>
<path d="M17.4155 28.3258C17.7196 28.3955 18.0238 28.5032 18.3343 28.5412C18.7715 28.5982 19.12 28.3321 19.4115 28.0533C19.6776 27.7998 20.0451 28.18 19.8107 28.4525C19.0946 29.3079 18.1315 29.479 17.181 28.8834C16.8832 28.6996 17.0796 28.2434 17.4155 28.3258Z" fill="#FDB717"/>
<path d="M12.3526 27.5464C12.6568 27.7365 13.6072 28.3511 13.791 27.7492C13.8734 27.4894 14.3106 27.521 14.2852 27.8189C14.2472 28.3131 13.9494 28.5475 13.4932 28.6743C12.8469 28.858 12.3019 28.4525 11.9344 27.9709C11.7316 27.7175 12.1055 27.388 12.3526 27.5464Z" fill="#FDB717"/>
<path d="M33.1236 28.6806C33.7573 28.7186 34.3846 28.6363 34.9105 28.2687C35.1449 28.104 35.3667 28.4525 35.1956 28.6426C34.6444 29.2636 33.8143 29.3966 33.0539 29.1432C32.8195 29.0608 32.8448 28.6616 33.1236 28.6806Z" fill="#FDB717"/>
<path d="M8.00578 27.6351C8.25291 27.7808 8.53806 27.9392 8.8232 27.9772C9.09567 28.0153 9.34278 27.8949 9.60892 27.9519C9.81168 27.9963 9.8307 28.2814 9.66595 28.3828C9.34912 28.5792 9.00062 28.7313 8.62043 28.6743C8.22124 28.6172 7.91707 28.3955 7.65728 28.0913C7.44817 27.8442 7.71431 27.464 8.00578 27.6351Z" fill="#FDB717"/>
<path d="M29.3787 31.1011C29.835 31.1138 30.3482 31.1582 30.7981 31.0695C30.9565 31.0378 31.4444 30.9111 31.4698 30.8287C31.5522 30.5499 32.0337 30.5879 31.9957 30.8984C31.9514 31.3166 31.5395 31.475 31.191 31.6144C30.5637 31.8679 29.9427 31.7855 29.3154 31.5637C29.0683 31.4813 29.0999 31.0885 29.3787 31.1011Z" fill="#FDB717"/>
<path d="M25.7796 31.2279C26.3182 31.2469 26.9455 31.3799 27.4271 31.0695C27.6489 30.9301 27.8833 31.2469 27.6996 31.4243C27.1546 31.9692 26.4006 31.9692 25.7099 31.7348C25.4438 31.6397 25.4755 31.2152 25.7796 31.2279Z" fill="#FDB717"/>
<path d="M19.3101 31.0251C20.1148 31.1772 20.9829 31.3546 21.6926 30.835C21.9144 30.6703 22.1995 31.0441 21.9904 31.2215C21.1983 31.8805 20.1085 31.8805 19.1833 31.5067C18.8855 31.3863 18.9932 30.9617 19.3101 31.0251Z" fill="#FDB717"/>
<path d="M14.9823 30.8033C15.749 30.8477 16.4396 30.9174 17.1937 30.7463C17.4915 30.6766 17.5992 31.1012 17.3204 31.1962C16.5093 31.475 15.6603 31.6271 14.8619 31.2532C14.6464 31.1518 14.7541 30.7907 14.9823 30.8033Z" fill="#FDB717"/>
<path d="M10.8699 30.3408C11.117 30.3471 11.3324 30.4358 11.5732 30.5055C11.8203 30.5815 12.0865 30.5879 12.3399 30.5435C12.7011 30.4802 12.8405 30.9617 12.492 31.0948C11.9471 31.2976 11.06 31.4053 10.6354 30.911C10.458 30.7019 10.5594 30.3344 10.8699 30.3408Z" fill="#FDB717"/>
<path d="M27.0976 34.6749C27.5158 34.7573 27.9277 34.8523 28.3522 34.8523C28.9035 34.8523 29.1887 34.5735 29.4928 34.168C29.6259 33.9969 29.949 34.0856 29.873 34.3264C29.4611 35.5747 27.9277 35.6951 26.8948 35.1628C26.6034 35.0171 26.8125 34.6242 27.0976 34.6749Z" fill="#FDB717"/>
<path d="M22.7761 34.4151C23.1246 34.5545 23.7329 34.9157 24.0054 34.5038C24.2018 34.206 24.601 34.4595 24.468 34.7763C24.1131 35.6 23.0169 35.4987 22.472 34.9347C22.2755 34.7256 22.472 34.2947 22.7761 34.4151Z" fill="#FDB717"/>
<path d="M17.5295 34.1427C17.802 34.2631 18.0618 34.4088 18.3659 34.4341C18.7144 34.4658 19.0566 34.3074 19.3544 34.1553C19.6079 34.0286 19.8233 34.3898 19.5762 34.5355C18.8412 34.9791 17.9097 35.1882 17.238 34.5102C17.0416 34.3137 17.2951 34.0349 17.5295 34.1427Z" fill="#FDB717"/>
<path d="M13.0306 33.8765C13.5375 34.4278 14.2156 34.5038 14.9062 34.3011C15.204 34.2124 15.4131 34.6813 15.1217 34.808C14.1712 35.2199 13.1447 35.2072 12.6314 34.1807C12.5174 33.9335 12.8279 33.6547 13.0306 33.8765Z" fill="#FDB717"/>
<path d="M32.5977 33.4647C32.7941 33.509 32.9842 33.566 33.1806 33.6104C33.2757 33.6294 33.7066 33.6738 33.7319 33.5597C33.7826 33.3062 34.1184 33.4013 34.1438 33.6167C34.1818 33.9462 33.827 34.0856 33.5672 34.149C33.1616 34.2504 32.7624 34.092 32.4203 33.8892C32.1858 33.7498 32.3442 33.4076 32.5977 33.4647Z" fill="#FDB717"/>
<path d="M29.9617 37.2159C30.3609 37.2475 31.2417 37.2919 31.3621 36.785C31.4318 36.4998 31.8436 36.6266 31.793 36.9054C31.6535 37.6848 30.4623 37.9192 29.854 37.6214C29.6639 37.5263 29.7526 37.1968 29.9617 37.2159Z" fill="#FDB717"/>
<path d="M24.5947 37.2665C24.8862 37.3743 25.165 37.5073 25.4565 37.6214C25.7036 37.7164 26.4893 37.8432 26.5907 37.444C26.6541 37.1968 27.0596 37.2475 27.0342 37.5073C26.9899 38.0143 26.5083 38.2043 26.0584 38.274C25.4311 38.3691 24.8228 38.0776 24.3539 37.6784C24.1765 37.52 24.3666 37.1842 24.5947 37.2665Z" fill="#FDB717"/>
<path d="M19.2467 37.52C19.5572 37.558 19.855 37.6404 20.1592 37.7164C20.5647 37.8242 20.8688 37.596 21.1096 37.3109C21.3061 37.0764 21.7116 37.3869 21.5342 37.6404C20.9259 38.5338 19.9944 38.5275 19.101 38.0396C18.8729 37.9129 18.9616 37.482 19.2467 37.52Z" fill="#FDB717"/>
<path d="M14.6971 37.0258C14.9696 36.9624 15.2167 37.0004 15.4828 37.0511C15.8313 37.1208 16.1735 37.1462 16.5284 37.1018C16.8072 37.0701 16.8579 37.5263 16.5917 37.5897C15.9898 37.7354 15.204 37.7735 14.6274 37.5073C14.4246 37.4186 14.4817 37.0765 14.6971 37.0258Z" fill="#FDB717"/>
<path d="M21.8066 40.137C22.1615 40.2194 22.472 40.4031 22.8458 40.4158C23.2387 40.4285 23.5935 40.1813 23.809 39.8708C23.9864 39.611 24.4046 39.8455 24.2399 40.118C23.7013 41.0304 22.3579 41.3472 21.5785 40.5298C21.4074 40.3588 21.5722 40.0863 21.8066 40.137Z" fill="#FDB717"/>
<path d="M25.7796 40.1306C26.6984 40.175 27.7503 40.2384 28.1558 39.2118C28.2509 38.9774 28.631 39.0724 28.5423 39.3196C28.0734 40.5742 26.9392 40.6122 25.7796 40.4601C25.5769 40.4348 25.5579 40.118 25.7796 40.1306Z" fill="#FDB717"/>
<path d="M17.0289 39.554C17.6372 39.7885 18.1061 39.8708 18.6764 39.4906C18.9552 39.3069 19.1833 39.7314 18.9299 39.9215C18.2646 40.4284 17.4598 40.4981 16.8008 39.9469C16.6234 39.8011 16.8135 39.4653 17.0289 39.554Z" fill="#FDB717"/>
<path d="M28.1748 15.7542C28.0924 15.469 28.0608 15.1522 28.1051 14.8164C28.2509 13.7202 29.2774 12.8077 30.3862 12.795C32.0654 12.7824 33.3327 14.734 32.566 16.2294C31.5585 18.2064 28.7134 17.5791 28.1748 15.7542Z" fill="#7F4217"/>
<path d="M31.6789 13.5681C32.7434 13.8722 32.2745 15.5197 31.21 15.2156C30.1518 14.9178 30.6144 13.2703 31.6789 13.5681Z" fill="white"/>
<path d="M12.4223 14.3221C12.3399 14.037 12.3083 13.7202 12.3526 13.3843C12.4984 12.2881 13.5249 11.3757 14.6337 11.363C16.3129 11.3503 17.5802 13.302 16.8135 14.7974C15.806 16.7744 12.9672 16.147 12.4223 14.3221Z" fill="#7F4217"/>
<path d="M15.9264 12.136C16.9909 12.4402 16.522 14.0877 15.4575 13.7835C14.3993 13.4857 14.8682 11.8382 15.9264 12.136Z" fill="white"/>
</svg>
