<svg preserveAspectRatio="none" viewBox="0 0 320 195" fill="none" xmlns="http://www.w3.org/2000/svg">
<path fill-rule="evenodd" clip-rule="evenodd" d="M164.494 296.656C123.965 309.518 85.1198 311.933 48.4835 311.76C11.8547 311.588 -29.9069 312.392 -44.8 295.671C-59.341 279.345 -37.7735 252.078 -25.7928 228.368C-15.8637 208.718 -2.18882 189.623 18.5423 170.316C41.2186 149.197 64.1947 126.663 98.8698 112.269C135.303 97.1448 187.5 97.5705 223.5 85C271.626 68.1953 321.043 -5.755 349.451 8C378.304 21.9704 361.115 130.53 349.451 159.371C338.626 186.141 312.22 213.632 278.256 238.842C246.302 262.56 207.002 283.166 164.494 296.656Z" fill="#6FA1D6" fill-opacity="0.06"/>
</svg>
