<svg preserveAspectRatio="none" viewBox="0 0 320 191" fill="none" xmlns="http://www.w3.org/2000/svg">
<path fill-rule="evenodd" clip-rule="evenodd" d="M-33.2446 -16.9661C-24.4266 -40.6771 -5.7544 -58.3402 14.3819 -73.7478C34.514 -89.1522 56.4354 -107.226 81.7888 -104.986C106.543 -102.798 122.907 -79.7495 140.827 -62.5728C155.677 -48.3375 167.915 -32.8012 176.528 -14.1723C185.948 6.20462 196.665 27.4312 192.616 49.4489C188.362 72.5826 169.847 88.9945 154.304 106.683C134.534 129.181 119.616 161.283 89.9585 166.273C59.8363 171.341 30.9243 151.041 7.54143 131.378C-14.1613 113.127 -28.121 87.9184 -35.6107 60.6775C-42.6572 35.0487 -42.4932 7.90236 -33.2446 -16.9661Z" fill="#6FA1D6" fill-opacity="0.06"/>
</svg>
